<svg id="グループ_325" data-name="グループ 325" xmlns="http://www.w3.org/2000/svg" xmlns:xlink="http://www.w3.org/1999/xlink" width="150" height="150" viewBox="0 0 150 150">
  <defs>
    <clipPath id="clip-path">
      <rect id="長方形_238" data-name="長方形 238" width="150" height="150" fill="none"/>
    </clipPath>
    <clipPath id="clip-path-2">
      <rect id="長方形_241" data-name="長方形 241" width="90" height="75.069" transform="translate(30 37.466)" fill="none"/>
    </clipPath>
  </defs>
  <g id="グループ_320" data-name="グループ 320">
    <g id="グループ_319" data-name="グループ 319" clip-path="url(#clip-path)">
      <path id="パス_207" data-name="パス 207" d="M75,141.5A66.5,66.5,0,1,1,141.5,75,66.576,66.576,0,0,1,75,141.5" fill="#fff"/>
      <path id="パス_208" data-name="パス 208" d="M75,9A66,66,0,1,1,9,75,66.074,66.074,0,0,1,75,9m0-1a67,67,0,1,0,67,67A67,67,0,0,0,75,8" fill="#9f1627"/>
      <path id="パス_209" data-name="パス 209" d="M121.179,108.5c.5-.361-1.781-3.012-2.135-3.427-1.82-2.133-4.977-2.641-7.607-2.809a13.46,13.46,0,0,0-7.5,1.49c-1.638.966-4,2.847-4.013,4.937,0,.159,1,.03,1-.25.011-1.732,1.72-3.145,2.971-4.122,2.57-2.008,6.32-1.919,9.375-1.376a8.5,8.5,0,0,1,5,2.649c.13.153,2.2,2.826,2.007,2.971s.71.075.9-.063" fill="#f8d187"/>
      <path id="パス_210" data-name="パス 210" d="M117.861,110.255c-1-3.369-5.1-4.677-8.289-4.337-2.34.25-6.851,2.119-6.25,5.117.09.458,1.089.216,1-.249-.5-2.521,3.5-3.974,5.439-4.18,2.757-.3,6.266,1.057,7.108,3.9.134.453,1.13.2,1-.248" fill="#f8d187"/>
      <path id="パス_211" data-name="パス 211" d="M114.021,111.979c0-1.5-1.783-1.724-2.946-1.654-1.459.087-3.163.876-3.5,2.422-.087.4.921.261,1-.1a2.432,2.432,0,0,1,2.364-1.743c.792-.081,2.083.152,2.083,1.172,0,.44,1,.249,1-.1" fill="#f8d187"/>
      <path id="パス_212" data-name="パス 212" d="M121.193,125.189c.49-.369-1.832-2.982-2.194-3.39-1.854-2.1-5.02-2.556-7.654-2.681a13.456,13.456,0,0,0-7.467,1.62c-1.622.993-3.953,2.913-3.929,5,0,.16,1,.013.994-.266-.019-1.734,1.665-3.174,2.9-4.175,2.535-2.05,6.289-2.024,9.349-1.534a8.5,8.5,0,0,1,5.044,2.564c.134.153,2.254,2.79,2.058,2.934-.208.159.71.066.9-.076" fill="#f8d187"/>
      <path id="パス_213" data-name="パス 213" d="M117.9,127c-1.055-3.349-5.181-4.588-8.363-4.192-2.336.29-6.814,2.234-6.163,5.221.1.455,1.094.2.994-.267-.548-2.512,3.431-4.032,5.367-4.272,2.748-.34,6.282.951,7.169,3.777.144.452,1.134.18,1-.267" fill="#f8d187"/>
      <path id="パス_214" data-name="パス 214" d="M114.093,128.793c-.024-1.5-1.81-1.7-2.972-1.6-1.457.112-3.147.931-3.454,2.482-.081.406.924.245,1-.116a2.425,2.425,0,0,1,2.335-1.78c.79-.1,2.085.116,2.1,1.132.008.441,1,.232.994-.113" fill="#f8d187"/>
      <path id="パス_215" data-name="パス 215" d="M135.6,117.446c.515-.334-1.624-3.1-1.956-3.532-1.706-2.223-4.833-2.893-7.451-3.2a13.462,13.462,0,0,0-7.563,1.1c-1.685.881-4.141,2.638-4.262,4.724-.011.16.993.081,1.01-.2.1-1.729,1.881-3.051,3.179-3.964,2.668-1.874,6.411-1.59,9.432-.89a8.5,8.5,0,0,1,4.857,2.9c.124.161,2.056,2.937,1.853,3.069-.22.145.7.113.9-.016" fill="#f8d187"/>
      <path id="パス_216" data-name="パス 216" d="M132.2,119.029c-.825-3.414-4.853-4.933-8.056-4.757-2.351.129-6.951,1.762-6.506,4.789.066.462,1.078.27,1.009-.2-.374-2.544,3.7-3.788,5.647-3.895,2.766-.151,6.2,1.38,6.9,4.259.11.461,1.119.256,1.01-.2" fill="#f8d187"/>
      <path id="パス_217" data-name="パス 217" d="M128.271,120.554c.078-1.5-1.69-1.815-2.855-1.805-1.462.013-3.2.715-3.618,2.24-.108.4.906.308,1-.045a2.427,2.427,0,0,1,2.45-1.619c.8-.041,2.073.26,2.02,1.276-.022.44.985.3,1-.047" fill="#f8d187"/>
      <path id="パス_218" data-name="パス 218" d="M106.9,116.945c.482-.382-1.916-2.926-2.289-3.324-1.915-2.047-5.091-2.41-7.727-2.46a13.451,13.451,0,0,0-7.418,1.83c-1.6,1.041-3.867,3.027-3.785,5.117,0,.159,1-.016.985-.295-.067-1.732,1.575-3.22,2.779-4.254,2.476-2.124,6.229-2.205,9.3-1.8a8.494,8.494,0,0,1,5.115,2.417c.138.147,2.332,2.724,2.141,2.876s.712.042.9-.105" fill="#f8d187"/>
      <path id="パス_219" data-name="パス 219" d="M103.666,118.852c-1.15-3.319-5.309-4.438-8.479-3.952-2.327.355-6.746,2.428-6.01,5.4.112.453,1.1.164.985-.3-.619-2.494,3.313-4.127,5.241-4.422,2.74-.419,6.307.769,7.278,3.566.155.448,1.14.148.985-.292" fill="#f8d187"/>
      <path id="パス_220" data-name="パス 220" d="M99.909,120.751c-.067-1.5-1.86-1.644-3.017-1.52-1.454.156-3.12,1.022-3.382,2.581-.069.407.931.218.991-.142a2.423,2.423,0,0,1,2.283-1.849c.787-.118,2.086.056,2.133,1.072.02.443,1.008.2.992-.142" fill="#f8d187"/>
      <path id="パス_221" data-name="パス 221" d="M49.136,25.217c.5-.361-1.781-3.012-2.135-3.427-1.82-2.133-4.977-2.642-7.607-2.81a13.452,13.452,0,0,0-7.5,1.491c-1.638.966-4,2.847-4.013,4.937,0,.159,1,.03,1-.25.011-1.732,1.72-3.145,2.971-4.122,2.57-2.009,6.321-1.919,9.375-1.377a8.5,8.5,0,0,1,5,2.65c.131.153,2.2,2.826,2.007,2.971s.71.075.9-.063" fill="#f8d187"/>
      <path id="パス_222" data-name="パス 222" d="M45.818,26.974c-1-3.369-5.1-4.677-8.29-4.337-2.34.25-6.851,2.119-6.249,5.117.091.458,1.089.216.994-.249-.5-2.521,3.5-3.974,5.44-4.18,2.756-.3,6.266,1.057,7.107,3.9.134.453,1.131.2,1-.248" fill="#f8d187"/>
      <path id="パス_223" data-name="パス 223" d="M41.977,28.7c0-1.5-1.782-1.724-2.945-1.654-1.459.087-3.163.876-3.5,2.422-.087.4.921.261,1-.1A2.431,2.431,0,0,1,38.9,27.625c.793-.081,2.083.152,2.083,1.172,0,.44,1,.249,1-.1" fill="#f8d187"/>
      <path id="パス_224" data-name="パス 224" d="M49.15,41.908c.489-.369-1.832-2.982-2.194-3.39-1.854-2.1-5.02-2.556-7.654-2.681a13.454,13.454,0,0,0-7.467,1.62c-1.622.993-3.953,2.913-3.929,5,0,.159,1,.013.994-.266-.019-1.734,1.665-3.174,2.9-4.175,2.534-2.05,6.288-2.024,9.348-1.534a8.5,8.5,0,0,1,5.045,2.564c.134.153,2.252,2.789,2.058,2.934s.709.066.9-.076" fill="#f8d187"/>
      <path id="パス_225" data-name="パス 225" d="M45.862,43.719c-1.055-3.349-5.181-4.588-8.363-4.192-2.336.29-6.814,2.234-6.163,5.221.1.455,1.094.2.994-.267-.548-2.512,3.431-4.032,5.367-4.272,2.748-.34,6.282.951,7.169,3.777.144.452,1.134.179,1-.267" fill="#f8d187"/>
      <path id="パス_226" data-name="パス 226" d="M42.05,45.511c-.024-1.5-1.81-1.7-2.972-1.605-1.457.112-3.147.931-3.454,2.482-.081.406.924.245.995-.116a2.425,2.425,0,0,1,2.335-1.78c.79-.1,2.085.116,2.1,1.132.008.441,1,.232.994-.113" fill="#f8d187"/>
      <path id="パス_227" data-name="パス 227" d="M63.557,34.164c.515-.334-1.624-3.1-1.956-3.532-1.706-2.223-4.833-2.893-7.451-3.2a13.462,13.462,0,0,0-7.563,1.1c-1.685.881-4.141,2.637-4.262,4.724-.011.16.993.081,1.01-.2.1-1.729,1.881-3.051,3.179-3.964,2.668-1.874,6.411-1.59,9.432-.89a8.5,8.5,0,0,1,4.857,2.9c.124.161,2.056,2.937,1.853,3.069-.22.145.7.113.9-.016" fill="#f8d187"/>
      <path id="パス_228" data-name="パス 228" d="M60.154,35.747c-.825-3.414-4.853-4.933-8.056-4.757-2.351.129-6.951,1.762-6.506,4.789.066.462,1.077.27,1.009-.2-.374-2.544,3.7-3.788,5.647-3.9,2.766-.15,6.2,1.381,6.9,4.259.11.461,1.119.257,1.01-.2" fill="#f8d187"/>
      <path id="パス_229" data-name="パス 229" d="M56.228,37.272c.078-1.5-1.69-1.815-2.855-1.806-1.462.014-3.2.716-3.618,2.241-.108.4.906.308,1-.045a2.427,2.427,0,0,1,2.45-1.619c.8-.041,2.073.26,2.02,1.276-.022.44.985.3,1-.047" fill="#f8d187"/>
      <path id="パス_230" data-name="パス 230" d="M34.858,33.664c.482-.382-1.916-2.926-2.289-3.324-1.915-2.047-5.091-2.41-7.726-2.46a13.445,13.445,0,0,0-7.419,1.831c-1.595,1.04-3.867,3.026-3.785,5.116.005.159,1-.016.985-.295-.067-1.732,1.575-3.22,2.779-4.254,2.476-2.124,6.229-2.2,9.3-1.8a8.488,8.488,0,0,1,5.115,2.416c.138.148,2.333,2.724,2.142,2.876-.206.164.711.043.9-.1" fill="#f8d187"/>
      <path id="パス_231" data-name="パス 231" d="M31.623,35.571c-1.15-3.319-5.309-4.438-8.479-3.952-2.327.355-6.746,2.428-6.01,5.4.112.453,1.1.164.985-.3-.619-2.494,3.313-4.127,5.241-4.422,2.74-.419,6.307.769,7.278,3.566.155.448,1.14.148.985-.292" fill="#f8d187"/>
      <path id="パス_232" data-name="パス 232" d="M27.866,37.47c-.067-1.5-1.86-1.644-3.017-1.52-1.454.156-3.12,1.022-3.382,2.581-.069.407.931.218.991-.142a2.423,2.423,0,0,1,2.283-1.849c.787-.118,2.086.056,2.133,1.072.02.443,1.008.2.992-.142" fill="#f8d187"/>
    </g>
  </g>
  <g id="グループ_322" data-name="グループ 322">
    <g id="グループ_321" data-name="グループ 321" clip-path="url(#clip-path-2)">
      <path id="パス_233" data-name="パス 233" d="M118.1,65.895c-7.529,0-13.2-6.8-13.2-11.208a9.447,9.447,0,0,1,2.437-6.676,1.9,1.9,0,0,0-1.277-3.3H43.933a1.9,1.9,0,0,0-1.277,3.3,9.571,9.571,0,0,1,2.435,6.676c0,4.406-5.664,11.208-13.193,11.208a1.9,1.9,0,0,0,0,3.8h9.532V98.709h10.2V69.692h11.91V86.6H61.465v5.147H88.54V86.6H86.362v-16.9H98.374V98.709h10.2V69.692H118.1a1.9,1.9,0,0,0,0-3.8h0M81.384,86.529H68.511V69.692H70.98V84.048h8.043V69.692h2.361Z" fill="#9f1627"/>
      <rect id="長方形_239" data-name="長方形 239" width="34.96" height="6.355" transform="translate(57.522 94.721)" fill="#9f1627"/>
      <rect id="長方形_240" data-name="長方形 240" width="43.759" height="7.748" transform="translate(53.122 104.786)" fill="#9f1627"/>
      <path id="パス_234" data-name="パス 234" d="M45.306,42.589H104.7a2.562,2.562,0,1,0,0-5.123H45.306a2.562,2.562,0,0,0,0,5.123" fill="#9f1627"/>
    </g>
  </g>
  <g id="グループ_324" data-name="グループ 324">
    <g id="グループ_323" data-name="グループ 323" clip-path="url(#clip-path)">
      <rect id="長方形_242" data-name="長方形 242" width="20.356" height="4.869" transform="translate(97.245 19.024)" fill="#f8d187"/>
      <path id="パス_235" data-name="パス 235" d="M120.034,21.458a2.434,2.434,0,1,0-2.434,2.435,2.434,2.434,0,0,0,2.434-2.435" fill="#f8d187"/>
      <path id="パス_236" data-name="パス 236" d="M99.678,21.458a2.435,2.435,0,1,0-2.434,2.435,2.433,2.433,0,0,0,2.434-2.435" fill="#f8d187"/>
      <path id="パス_237" data-name="パス 237" d="M110.729,26.328a2.434,2.434,0,0,1,2.434-2.435h-8.934a2.434,2.434,0,0,1,0,4.869h8.934a2.434,2.434,0,0,1-2.434-2.434" fill="#f8d187"/>
      <rect id="長方形_243" data-name="長方形 243" width="29.52" height="4.87" transform="translate(103.389 28.761)" fill="#f8d187"/>
      <path id="パス_238" data-name="パス 238" d="M135.344,31.2a2.434,2.434,0,1,0-2.434,2.434,2.435,2.435,0,0,0,2.434-2.434" fill="#f8d187"/>
      <path id="パス_239" data-name="パス 239" d="M105.823,31.2a2.434,2.434,0,1,0-2.434,2.434,2.435,2.435,0,0,0,2.434-2.434" fill="#f8d187"/>
      <rect id="長方形_244" data-name="長方形 244" width="15.57" height="3.723" transform="translate(31.338 108.856)" fill="#f8d187"/>
      <path id="パス_240" data-name="パス 240" d="M48.77,110.717a1.864,1.864,0,1,0-1.861,1.861,1.861,1.861,0,0,0,1.861-1.861" fill="#f8d187"/>
      <path id="パス_241" data-name="パス 241" d="M33.2,110.717a1.863,1.863,0,1,0-1.861,1.861,1.861,1.861,0,0,0,1.861-1.861" fill="#f8d187"/>
      <path id="パス_242" data-name="パス 242" d="M41.65,114.44a1.863,1.863,0,0,1,1.862-1.862H36.678a1.862,1.862,0,1,1,0,3.725h6.834a1.863,1.863,0,0,1-1.862-1.863" fill="#f8d187"/>
      <rect id="長方形_245" data-name="長方形 245" width="22.578" height="3.725" transform="translate(36.038 116.303)" fill="#f8d187"/>
      <path id="パス_243" data-name="パス 243" d="M60.479,118.164a1.862,1.862,0,1,0-1.863,1.863,1.862,1.862,0,0,0,1.863-1.863" fill="#f8d187"/>
      <path id="パス_244" data-name="パス 244" d="M37.9,118.164a1.862,1.862,0,1,0-1.861,1.863,1.862,1.862,0,0,0,1.861-1.863" fill="#f8d187"/>
      <path id="パス_245" data-name="パス 245" d="M41.65,121.89a1.862,1.862,0,0,1,1.862-1.862H36.678a1.862,1.862,0,1,1,0,3.724h6.834a1.863,1.863,0,0,1-1.862-1.862" fill="#f8d187"/>
      <rect id="長方形_246" data-name="長方形 246" width="22.579" height="3.724" transform="translate(22.014 123.752)" fill="#f8d187"/>
      <path id="パス_246" data-name="パス 246" d="M46.454,125.613a1.861,1.861,0,1,0-1.861,1.862,1.861,1.861,0,0,0,1.861-1.862" fill="#f8d187"/>
      <path id="パス_247" data-name="パス 247" d="M23.875,125.613a1.863,1.863,0,1,0-1.861,1.862,1.862,1.862,0,0,0,1.861-1.862" fill="#f8d187"/>
      <path id="パス_248" data-name="パス 248" d="M75,2A73,73,0,1,1,2,75,73.083,73.083,0,0,1,75,2m0-2a75,75,0,1,0,75,75A75,75,0,0,0,75,0" fill="#9f1627"/>
    </g>
  </g>
</svg>
