<svg xmlns="http://www.w3.org/2000/svg" width="14.999" height="20" viewBox="0 0 14.999 20">
  <path id="FontAwsome_hiking_" data-name="FontAwsome (hiking)" d="M3.16,18.446a1.25,1.25,0,0,0,2.426.607l.986-3.944L4.51,13.047l-1.35,5.4Zm.582-7.661L5.35,4.57a.613.613,0,0,0-.466-.745A3.211,3.211,0,0,0,1,6.059L.017,9.892a.613.613,0,0,0,.466.745l2.483.6a.642.642,0,0,0,.776-.447ZM14.373,6.25h-.625a.625.625,0,0,0-.625.625V7.5H11.766L9.938,5.673A2.3,2.3,0,0,0,6.087,6.739L5.036,10.947a1.25,1.25,0,0,0,.329,1.187l3.384,3.384V18.75a1.25,1.25,0,1,0,2.5,0V15.517a2.483,2.483,0,0,0-.732-1.768L8.687,11.921c.006-.02.019-.035.024-.055l.777-3.108.876.876a1.25,1.25,0,0,0,.884.366h1.875v9.375a.625.625,0,0,0,.625.625h.625A.625.625,0,0,0,15,19.375V6.875A.624.624,0,0,0,14.373,6.25Zm-5-2.5A1.875,1.875,0,1,0,7.5,1.875,1.875,1.875,0,0,0,9.373,3.75Z" transform="translate(0.002)" fill="#d3992c"/>
</svg>
