<svg xmlns="http://www.w3.org/2000/svg" xmlns:xlink="http://www.w3.org/1999/xlink" width="272.967" height="169.302" viewBox="0 0 272.967 169.302">
  <defs>
    <clipPath id="clip-path">
      <rect id="長方形_63" data-name="長方形 63" width="272.967" height="169.302" fill="#fff"/>
    </clipPath>
    <clipPath id="clip-path-2">
      <rect id="長方形_64" data-name="長方形 64" width="54.75" height="52.337" fill="none" stroke="#f8d187" stroke-width="1"/>
    </clipPath>
    <clipPath id="clip-path-3">
      <rect id="長方形_64-2" data-name="長方形 64" width="39.568" height="37.824" fill="none" stroke="#f8d187" stroke-width="1"/>
    </clipPath>
  </defs>
  <g id="グループ_387" data-name="グループ 387" transform="translate(-145 -3918.497)">
    <g id="グループ_105" data-name="グループ 105" transform="translate(145 3918.496)">
      <g id="グループ_63" data-name="グループ 63" transform="translate(0 0.001)" clip-path="url(#clip-path)">
        <path id="パス_82" data-name="パス 82" d="M264.235,43.593H182.608a8.722,8.722,0,0,0,0,17.444h5.984a6.234,6.234,0,0,1,1.227,12.346H147.757c-.3-2.407-1.883-4.621-5.224-5.748-6.592-2.224-16.112-5.376-16.112-5.376a3.3,3.3,0,0,1-.719,1.206l8.486,5.717a1.85,1.85,0,0,1,2.161-.068,1.868,1.868,0,0,1-2.093,3.094,1.848,1.848,0,0,1-.745-2.024l-6.535-4.411L131.6,72.15a1.866,1.866,0,1,1-.97.708L126,66.475l2.171,7.584a1.85,1.85,0,1,1-1.159.325L124.2,64.561a3.416,3.416,0,0,1-1.369.309s.058,10.022.131,16.982,6.341,8.727,11.029,6.64a7.955,7.955,0,0,0,2.255-1.468,8.719,8.719,0,0,0,7.2,3.8h9.446c-1.117,2.418-1,5.418,1.238,8.564,4.725,6.65,11.564,16.2,11.564,16.2a3.987,3.987,0,0,1,1.516-.65l-4.1-11.26a2.193,2.193,0,1,1,1.322-.488l3.168,8.685v-9.241a2.184,2.184,0,1,1,1.4,0v9.241l3.168-8.685a2.177,2.177,0,1,1,1.322.488l-4.1,11.26a3.986,3.986,0,0,1,1.51.65s6.849-9.55,11.575-16.2c2.229-3.147,2.355-6.147,1.238-8.564h41.354a8.722,8.722,0,1,0,0-17.444h-5.124a6.235,6.235,0,0,1,1.227-12.346h43.064a8.722,8.722,0,1,0,0-17.444M126.768,57.633l8.056-6.294a1.859,1.859,0,0,1,3.225-1.752,1.858,1.858,0,0,1-2.481,2.7l-6.215,4.857,7.495-2.439a1.878,1.878,0,1,1,.383,1.149l-7.5,2.434,7.877.273a1.865,1.865,0,1,1-.042,1.206l-10.222-.357a3.3,3.3,0,0,1-.136,1.39s9.561,3.042,16.206,5.124,10.253-3.33,9.713-8.428c-.535-5.114-4.526-5.974-4.526-5.974s2.722-3.052.152-7.495-8.664-6.7-12.813-1.112-10.1,13.668-10.1,13.668a3.38,3.38,0,0,1,.928,1.049m-6.912-1.914a3.309,3.309,0,0,1,1.28-.561l-3.493-9.608a1.858,1.858,0,0,1-.677-3.6,1.861,1.861,0,0,1,1.815,3.194l2.7,7.405V44.663a1.858,1.858,0,0,1,.6-3.619,1.857,1.857,0,0,1,.593,3.619v7.883l2.706-7.405a1.866,1.866,0,1,1,1.128.409l-3.493,9.608a3.309,3.309,0,0,1,1.28.561s5.848-8.15,9.876-13.825,0-10.778-5.019-11.853-7.07,2.47-7.07,2.47-2.061-3.535-7.08-2.47-9.052,6.178-5.019,11.853,9.876,13.825,9.876,13.825M95.395,44.028c-2.57,4.442.152,7.495.152,7.495s-3.991.86-4.526,5.974c-.535,5.1,3.073,10.5,9.724,8.428,6.634-2.082,16.19-5.124,16.19-5.124a3.256,3.256,0,0,1-.131-1.39l-10.222.357a1.866,1.866,0,1,1-.042-1.206l7.877-.273-7.5-2.434a1.856,1.856,0,1,1,.383-1.149l7.495,2.439-6.215-4.857a1.86,1.86,0,1,1,.131-3.031,1.881,1.881,0,0,1,.614,2.082l8.051,6.294a3.353,3.353,0,0,1,.934-1.049s-5.942-8.071-10.1-13.668-10.253-3.33-12.813,1.112m30.3,16.127a3.619,3.619,0,1,0-3.614,3.629,3.61,3.61,0,0,0,3.614-3.629M110.163,88.492c4.683,2.087,10.94.325,11.024-6.64s.131-16.982.131-16.982a3.355,3.355,0,0,1-1.358-.309l-2.827,9.823a1.865,1.865,0,1,1-1.159-.325l2.171-7.584-4.631,6.383a1.859,1.859,0,1,1-3.031-.031,1.865,1.865,0,0,1,2.061-.677l4.636-6.377-6.545,4.411A1.859,1.859,0,0,1,107.3,71.71a1.863,1.863,0,0,1,2.67-2.528l8.475-5.717a3.5,3.5,0,0,1-.719-1.206s-9.519,3.152-16.112,5.376-6.33,8.722-2.9,12.54,7.169,2.161,7.169,2.161-.409,4.07,4.28,6.157m6.792,59.479-2.428,8.475a1.6,1.6,0,0,1-1.358,2.853,1.617,1.617,0,0,1-1.107-1.988,1.592,1.592,0,0,1,1.463-1.154l1.872-6.535-3.991,5.5a1.582,1.582,0,0,1-.01,1.862,1.609,1.609,0,1,1-.829-2.475l3.991-5.5-5.633,3.8a1.594,1.594,0,1,1-.572-.86l7.3-4.925a3.009,3.009,0,0,1-.614-1.038s-8.2,2.717-13.888,4.631-5.46,7.516-2.512,10.8c2.963,3.288,6.189,1.862,6.189,1.862s-.357,3.514,3.687,5.308,9.435.288,9.5-5.717.121-14.638.121-14.638a2.966,2.966,0,0,1-1.18-.267m4.951-3.792a3.121,3.121,0,1,0-3.126,3.121,3.126,3.126,0,0,0,3.126-3.121m14.512,6.44c-5.7-1.914-13.888-4.631-13.888-4.631a3.009,3.009,0,0,1-.614,1.038l7.3,4.925a1.6,1.6,0,1,1-.582.86l-5.633-3.8,3.991,5.5a1.61,1.61,0,1,1-.839.614l-3.991-5.5,1.872,6.535a1.62,1.62,0,1,1-.991.288l-2.428-8.475a3,3,0,0,1-1.18.267s.052,8.638.115,14.638,5.46,7.516,9.5,5.717,3.676-5.308,3.676-5.308,3.225,1.427,6.189-1.862,3.183-8.884-2.5-10.8m62.957-39.943s3.2-3.572.194-8.785-10.159-7.851-15.026-1.306S172.711,116.6,172.711,116.6a3.9,3.9,0,0,1,1.086,1.238l9.446-7.379a2.18,2.18,0,1,1,3.4,1.012,2.161,2.161,0,0,1-2.528.1l-7.285,5.69,8.79-2.853a2.173,2.173,0,0,1,1.495-2.051,2.187,2.187,0,1,1-1.065,3.393l-8.78,2.848,9.231.325a2.183,2.183,0,1,1-.052,1.411l-11.973-.414a3.936,3.936,0,0,1-.152,1.631s11.2,3.561,18.98,6,12.015-3.9,11.391-9.886-5.318-6.986-5.318-6.986m-7.1,18.881c-7.736-2.607-18.881-6.3-18.881-6.3a4.15,4.15,0,0,1-.839,1.411l9.928,6.7a2.179,2.179,0,1,1-.792,1.17l-7.662-5.171,5.439,7.479a2.18,2.18,0,1,1-1.143.829l-5.433-7.474,2.554,8.879a2.179,2.179,0,1,1-1.364.388l-3.3-11.517a4.135,4.135,0,0,1-1.61.362s.073,11.748.168,19.909,7.426,10.217,12.918,7.773,5.009-7.217,5.009-7.217,4.384,1.935,8.407-2.528c4.028-4.479,4.332-12.089-3.4-14.69M165.82,125.95l-3.309,11.517a2.181,2.181,0,1,1-1.353-.388l2.549-8.879-5.439,7.474a2.18,2.18,0,0,1-3.063,3.021,2.192,2.192,0,0,1-.477-3.052,2.166,2.166,0,0,1,2.407-.8l5.428-7.479-7.662,5.171a2.179,2.179,0,1,1-.781-1.17l9.928-6.7a3.943,3.943,0,0,1-.839-1.411s-11.145,3.7-18.881,6.3a10.977,10.977,0,0,0-2.355,1.091c-.063-.126-.126-.241-.194-.367a8.127,8.127,0,0,0-1.846-2.2,11.133,11.133,0,0,0,3.372-.535c7.783-2.439,18.97-6,18.97-6a3.936,3.936,0,0,1-.152-1.631l-11.968.414a2.181,2.181,0,1,1-.047-1.411l9.225-.325-8.785-2.848a2.181,2.181,0,1,1-1.065-3.393,2.189,2.189,0,0,1,1.505,2.051l8.785,2.853-7.28-5.69a2.179,2.179,0,1,1,.871-1.112l9.435,7.379a3.989,3.989,0,0,1,1.1-1.238s-6.97-9.461-11.832-16.012-12.015-3.9-15.031,1.306.2,8.785.2,8.785a2.334,2.334,0,0,0-.288.079,8.686,8.686,0,0,0-7.426-4.185H47.883a8.722,8.722,0,1,0,0,17.444h5.974a6.234,6.234,0,0,1,1.238,12.346H8.717a8.722,8.722,0,0,0,0,17.444H90.344a8.707,8.707,0,0,0,7.489-4.264,8.042,8.042,0,0,0,2.559-.388c5.727-1.8,13.961-4.416,13.961-4.416a2.854,2.854,0,0,1-.11-1.2l-8.811.3a1.615,1.615,0,1,1-.042-1.038l6.792-.236-6.451-2.1a1.615,1.615,0,1,1,.315-.986l6.467,2.1-5.36-4.19a1.6,1.6,0,1,1,.115-2.6,1.577,1.577,0,0,1,.519,1.788L114.737,142a3.073,3.073,0,0,1,.8-.907s-5.124-6.96-8.7-11.774c-3.587-4.815-8.842-2.869-11.056.96s.147,6.456.147,6.456a4.611,4.611,0,0,0-1.448.666,8.667,8.667,0,0,0-4.138-1.044H85.215a6.235,6.235,0,0,1,1.238-12.346h20.507a6.746,6.746,0,0,0,1.406,4.426c3.472,4.893,8.5,11.911,8.5,11.911a2.9,2.9,0,0,1,1.117-.477l-3.021-8.281a1.608,1.608,0,1,1,.981-.357l2.313,6.383v-6.792a1.61,1.61,0,1,1,1.049,0v6.792l2.323-6.383a1.6,1.6,0,1,1,.976.357l-3.016,8.281a2.9,2.9,0,0,1,1.107.477s5.04-7.017,8.512-11.911a6.708,6.708,0,0,0,1.4-4.5,8.52,8.52,0,0,0,2.224-.582,8.5,8.5,0,0,0,2.439,3.136,6.394,6.394,0,0,0-4.531,2.827c-3.582,4.815-8.706,11.774-8.706,11.774a2.962,2.962,0,0,1,.8.907l6.944-5.423a1.6,1.6,0,0,1,2.774-1.51,1.6,1.6,0,0,1-2.14,2.323l-5.35,4.19,6.467-2.1a1.591,1.591,0,1,1,.315.986l-6.461,2.1,6.792.236a1.6,1.6,0,1,1-.042,1.038l-8.8-.3a3.079,3.079,0,0,1-.11,1.2s8.224,2.617,13.951,4.416c3.493,1.086,6-.215,7.332-2.4a6.944,6.944,0,0,0,4.836.021s-.493,4.773,5.009,7.217,12.828.383,12.918-7.773.152-19.909.152-19.909a4.055,4.055,0,0,1-1.594-.362m6.729-5.15a4.246,4.246,0,1,0-4.253,4.238,4.252,4.252,0,0,0,4.253-4.238M93.91,23.176l-1.474-5.119a1.71,1.71,0,0,1-.708.163s.031,5.213.068,8.842c.042,3.614,3.3,4.531,5.738,3.451a3.329,3.329,0,0,0,2.224-3.2,3.317,3.317,0,0,0,3.729-1.128c1.783-1.982,1.925-5.365-1.505-6.519s-8.391-2.806-8.391-2.806a1.779,1.779,0,0,1-.367.64l4.416,2.968a.943.943,0,0,1,1.117-.031.968.968,0,1,1-1.479.556l-3.4-2.3,2.418,3.32a.961.961,0,0,1,1.065.346.97.97,0,1,1-1.579.021l-2.407-3.32L94.5,23a.967.967,0,0,1,.892.7.98.98,0,0,1-.666,1.2.969.969,0,0,1-1.2-.666.938.938,0,0,1,.378-1.059m-3.729-9.718a1.9,1.9,0,0,1,.666-.288l-1.815-5a.975.975,0,1,1,.582-.215l1.406,3.86V7.709a.968.968,0,1,1,.624,0v4.107l1.406-3.86a.976.976,0,1,1,.593.215l-1.825,5a1.9,1.9,0,0,1,.677.288s3.031-4.232,5.134-7.19,0-5.6-2.612-6.162A3.314,3.314,0,0,0,91.34,1.39,3.34,3.34,0,0,0,87.648.1c-2.6.561-4.7,3.21-2.6,6.162s5.134,7.19,5.134,7.19m-9.949,5.318c3.467-1.086,8.433-2.664,8.433-2.664a1.716,1.716,0,0,1-.073-.729l-5.318.184a.94.94,0,0,1-.886.687.968.968,0,1,1-.063-1.935.961.961,0,0,1,.934.624l4.1-.142-3.9-1.269a.959.959,0,0,1-1.065.341.969.969,0,1,1,.593-1.846.952.952,0,0,1,.666.907l3.9,1.274-3.225-2.533a.974.974,0,1,1,.378-.493l4.19,3.278a1.834,1.834,0,0,1,.483-.551S86.29,9.708,84.129,6.8s-5.339-1.736-6.671.582a3.3,3.3,0,0,0,.084,3.892,3.32,3.32,0,0,0-2.355,3.1c-.288,2.659,1.594,5.47,5.045,4.4M93.223,15.77a1.885,1.885,0,1,0-1.883,1.888,1.885,1.885,0,0,0,1.883-1.888m.551-1.311,4.19-3.278a.963.963,0,0,1,.32-1.08.972.972,0,1,1,.068,1.573l-3.236,2.533,3.9-1.274a.979.979,0,1,1,.2.6L95.311,14.8l4.112.142a.94.94,0,0,1,.928-.624.968.968,0,1,1-.96,1.248l-5.318-.184a1.837,1.837,0,0,1-.063.729s4.972,1.579,8.423,2.664,5.334-1.736,5.061-4.4a3.328,3.328,0,0,0-2.36-3.1,3.322,3.322,0,0,0,.084-3.892c-1.343-2.318-4.505-3.488-6.666-.582S93.3,13.909,93.3,13.909a1.866,1.866,0,0,1,.477.551M85.141,30.513c2.439,1.08,5.7.163,5.738-3.451.031-3.629.068-8.842.068-8.842a1.712,1.712,0,0,1-.713-.163l-1.468,5.119a.968.968,0,1,1-1.484.524.96.96,0,0,1,.881-.7L89.3,19.059l-2.418,3.32a.961.961,0,0,1,0,1.122.975.975,0,1,1-.5-1.489l2.407-3.32-3.4,2.3a.967.967,0,0,1-1.741.787.971.971,0,0,1,.267-1.343.952.952,0,0,1,1.122.031L89.442,17.5a1.884,1.884,0,0,1-.367-.64s-4.946,1.652-8.381,2.806-3.3,4.537-1.516,6.519a3.333,3.333,0,0,0,3.739,1.128,3.329,3.329,0,0,0,2.224,3.2" transform="translate(0 -0.002)" fill="#fff"/>
      </g>
    </g>
    <g id="グループ_106" data-name="グループ 106" transform="translate(272.107 3983.863)">
      <g id="グループ_66" data-name="グループ 66" transform="translate(0 0)" clip-path="url(#clip-path-2)">
        <path id="パス_83" data-name="パス 83" d="M6.851,13.9,4.358,5.237a2.808,2.808,0,0,1-1.2.284s.053,8.819.124,14.95,5.572,7.666,9.7,5.838,3.762-5.421,3.762-5.421,3.292,1.455,6.308-1.908,3.256-9.067-2.546-11.028S6.31,3.214,6.31,3.214a2.94,2.94,0,0,1-.621,1.074l7.47,5.022a1.61,1.61,0,0,1,1.89-.053A1.638,1.638,0,0,1,13.23,11.98a1.616,1.616,0,0,1-.674-1.783L6.8,6.31l4.09,5.616a1.631,1.631,0,1,1-.869.63L5.946,6.94l1.908,6.672a1.625,1.625,0,0,1,1.508,1.18,1.637,1.637,0,1,1-3.15.9A1.586,1.586,0,0,1,6.851,13.9" transform="translate(24.876 25.301)" fill="none" stroke="#f8d187" stroke-width="1"/>
        <path id="パス_84" data-name="パス 84" d="M11.858,22.766a3.221,3.221,0,0,1,1.127-.488l-3.07-8.455a1.641,1.641,0,1,1,.994-.364l2.369,6.53V13.042a1.637,1.637,0,1,1,1.056,0v6.947l2.378-6.53a1.652,1.652,0,1,1,1,.364l-3.088,8.455a3.219,3.219,0,0,1,1.153.488S20.907,15.6,24.456,10.6s0-9.476-4.418-10.425-6.219,2.174-6.219,2.174S12-.763,7.581.177-.377,5.607,3.172,10.6s8.686,12.164,8.686,12.164" transform="translate(13.561 0)" fill="none" stroke="#f8d187" stroke-width="1"/>
        <path id="パス_85" data-name="パス 85" d="M8.592,24.133C14.448,22.3,22.85,19.626,22.85,19.626a2.938,2.938,0,0,1-.115-1.224l-9,.311a1.612,1.612,0,0,1-1.508,1.162,1.642,1.642,0,1,1-.106-3.283A1.606,1.606,0,0,1,13.7,17.657l6.929-.248-6.6-2.147a1.609,1.609,0,0,1-1.8.577,1.64,1.64,0,0,1,1-3.123,1.61,1.61,0,0,1,1.127,1.544l6.61,2.147L15.5,12.12a1.641,1.641,0,0,1-1.908-.062A1.641,1.641,0,1,1,15.61,9.468a1.635,1.635,0,0,1,.541,1.828l7.08,5.545a3.076,3.076,0,0,1,.816-.94S18.831,8.793,15.175,3.878,6.152.95,3.9,4.863c-2.271,3.913.133,6.583.133,6.583S.519,12.209.048,16.7c-.488,4.5,2.706,9.254,8.544,7.435" transform="translate(-0.004 7.629)" fill="none" stroke="#f8d187" stroke-width="1"/>
        <path id="パス_86" data-name="パス 86" d="M9.105,5.833A3.19,3.19,0,1,0,5.92,9.018,3.188,3.188,0,0,0,9.105,5.833" transform="translate(21.46 20.845)" fill="none" stroke="#f8d187" stroke-width="1"/>
        <path id="パス_87" data-name="パス 87" d="M4.274,16.839l7.089-5.545A1.637,1.637,0,0,1,14.2,9.751a1.634,1.634,0,0,1-2.183,2.378L6.546,16.4l6.6-2.147a1.677,1.677,0,0,1,1.127-1.544,1.647,1.647,0,1,1-.8,2.546l-6.6,2.147,6.947.248A1.61,1.61,0,0,1,15.4,16.6a1.638,1.638,0,1,1-.124,3.274,1.657,1.657,0,0,1-1.508-1.162L4.78,18.4a3.25,3.25,0,0,1-.106,1.224s8.4,2.671,14.24,4.507c5.865,1.819,9.032-2.937,8.562-7.435-.461-4.48-3.984-5.243-3.984-5.243s2.4-2.679.142-6.592C21.362.949,16-1.038,12.348,3.877s-8.89,12.031-8.89,12.031a3.1,3.1,0,0,1,.816.932" transform="translate(27.222 7.621)" fill="none" stroke="#f8d187" stroke-width="1"/>
        <path id="パス_88" data-name="パス 88" d="M12.7,26.317c4.126,1.828,9.635.275,9.706-5.838.053-6.14.115-14.959.115-14.959a2.9,2.9,0,0,1-1.207-.275l-2.484,8.659a1.638,1.638,0,1,1-2.511.887,1.624,1.624,0,0,1,1.491-1.18L19.74,6.94l-4.09,5.616a1.625,1.625,0,0,1,0,1.9,1.649,1.649,0,1,1-.852-2.52L18.87,6.319l-5.749,3.886a1.636,1.636,0,0,1-2.946,1.331,1.642,1.642,0,0,1,.452-2.271,1.611,1.611,0,0,1,1.9.053L19.979,4.3a3.187,3.187,0,0,1-.621-1.082S10.992,6.009,5.181,7.961-.4,15.635,2.616,18.989C5.651,22.351,8.942,20.9,8.942,20.9s-.364,3.584,3.762,5.421" transform="translate(4.189 25.301)" fill="none" stroke="#f8d187" stroke-width="1"/>
      </g>
    </g>
    <g id="グループ_107" data-name="グループ 107" transform="translate(332.714 4043.051) rotate(-30)">
      <g id="グループ_66-2" data-name="グループ 66" transform="translate(0 0)" clip-path="url(#clip-path-3)">
        <path id="パス_83-2" data-name="パス 83" d="M2.667,7.72.866,1.462A2.029,2.029,0,0,1,0,1.667s.038,6.373.09,10.8S4.116,18.011,7.1,16.69a4.069,4.069,0,0,0,2.719-3.918,4.055,4.055,0,0,0,4.559-1.379c2.18-2.424,2.353-6.553-1.84-7.97S2.276,0,2.276,0a2.125,2.125,0,0,1-.449.776L7.226,4.4a1.164,1.164,0,0,1,1.366-.038A1.183,1.183,0,0,1,7.278,6.335,1.168,1.168,0,0,1,6.79,5.046L2.629,2.238,5.585,6.3a1.179,1.179,0,1,1-.628.455L2.013,2.693,3.392,7.515a1.175,1.175,0,0,1,1.09.853,1.183,1.183,0,1,1-2.276.648,1.146,1.146,0,0,1,.462-1.3" transform="translate(20.262 20.608)" fill="none" stroke="#f8d187" stroke-width="1"/>
        <path id="パス_84-2" data-name="パス 84" d="M7.325,16.453a2.328,2.328,0,0,1,.814-.353L5.92,9.989a1.186,1.186,0,1,1,.718-.263L8.35,14.446V9.425a1.183,1.183,0,1,1,.763,0v5.021l1.718-4.719a1.194,1.194,0,1,1,.725.263L9.325,16.1a2.326,2.326,0,0,1,.834.353s3.706-5.181,6.271-8.791,0-6.848-3.193-7.534A4.052,4.052,0,0,0,8.742,1.7,4.078,4.078,0,0,0,4.234.128C1.047.814-1.517,4.052,1.047,7.662s6.277,8.791,6.277,8.791" transform="translate(11.046 0)" fill="none" stroke="#f8d187" stroke-width="1"/>
        <path id="パス_85-2" data-name="パス 85" d="M6.21,16.741c4.232-1.327,10.3-3.257,10.3-3.257a2.124,2.124,0,0,1-.083-.885l-6.5.224a1.165,1.165,0,0,1-1.09.84,1.187,1.187,0,1,1-.077-2.372A1.16,1.16,0,0,1,9.9,12.06l5.008-.18-4.77-1.552a1.163,1.163,0,0,1-1.3.417,1.185,1.185,0,0,1,.725-2.257A1.163,1.163,0,0,1,10.378,9.6l4.777,1.552-3.95-3.1a1.186,1.186,0,0,1-1.379-.045,1.186,1.186,0,1,1,1.456-1.872,1.181,1.181,0,0,1,.391,1.321L16.79,11.47a2.223,2.223,0,0,1,.59-.68S13.609,5.655,10.968,2.1s-6.521-2.116-8.15.712a4.039,4.039,0,0,0,.1,4.758,4.067,4.067,0,0,0-2.879,3.8c-.353,3.251,1.956,6.688,6.175,5.373" transform="translate(-0.003 6.214)" fill="none" stroke="#f8d187" stroke-width="1"/>
        <path id="パス_86-2" data-name="パス 86" d="M4.61,2.3a2.305,2.305,0,1,0-2.3,2.3,2.3,2.3,0,0,0,2.3-2.3" transform="translate(17.479 16.978)" fill="none" stroke="#f8d187" stroke-width="1"/>
        <path id="パス_87-2" data-name="パス 87" d="M.59,11.47,5.713,7.463A1.183,1.183,0,0,1,7.765,6.347,1.181,1.181,0,0,1,6.188,8.065L2.231,11.156,7,9.6a1.212,1.212,0,0,1,.814-1.116,1.19,1.19,0,1,1-.577,1.84l-4.77,1.552,5.021.18A1.163,1.163,0,0,1,8.63,11.3a1.184,1.184,0,1,1-.09,2.366,1.2,1.2,0,0,1-1.09-.84L.955,12.6a2.349,2.349,0,0,1-.077.885s6.072,1.93,10.291,3.257c4.238,1.314,6.527-2.122,6.188-5.373a4.056,4.056,0,0,0-2.879-3.789,4.069,4.069,0,0,0,.1-4.764C12.939-.014,9.066-1.45,6.425,2.1S0,10.8,0,10.8a2.243,2.243,0,0,1,.59.673" transform="translate(22.172 6.207)" fill="none" stroke="#f8d187" stroke-width="1"/>
        <path id="パス_88-2" data-name="パス 88" d="M8.8,16.7c2.982,1.321,6.963.2,7.015-4.219.038-4.437.083-10.811.083-10.811a2.093,2.093,0,0,1-.872-.2l-1.8,6.258a1.184,1.184,0,1,1-1.815.641,1.174,1.174,0,0,1,1.077-.853l1.391-4.822L10.926,6.752a1.174,1.174,0,0,1,0,1.372A1.192,1.192,0,1,1,10.31,6.3l2.943-4.059L9.1,5.053a1.183,1.183,0,0,1-2.129.962A1.187,1.187,0,0,1,7.3,4.373a1.164,1.164,0,0,1,1.372.038L14.055.782A2.3,2.3,0,0,1,13.606,0S7.559,2.02,3.359,3.43-.674,8.977,1.506,11.4a4.074,4.074,0,0,0,4.572,1.379A4.069,4.069,0,0,0,8.8,16.7" transform="translate(3.412 20.608)" fill="none" stroke="#f8d187" stroke-width="1"/>
      </g>
    </g>
  </g>
</svg>
