<svg xmlns="http://www.w3.org/2000/svg" xmlns:xlink="http://www.w3.org/1999/xlink" width="392.967" height="243.729" viewBox="0 0 392.967 243.729">
  <defs>
    <clipPath id="clip-path">
      <rect id="長方形_63" data-name="長方形 63" width="392.967" height="243.729" fill="#fff"/>
    </clipPath>
  </defs>
  <g id="グループ_64" data-name="グループ 64" transform="translate(0 0)">
    <g id="グループ_63" data-name="グループ 63" transform="translate(0 0.001)" clip-path="url(#clip-path)">
      <path id="パス_82" data-name="パス 82" d="M380.4,62.757H262.884a12.556,12.556,0,0,0,0,25.112H271.5a8.974,8.974,0,0,1,1.767,17.773H212.713c-.438-3.466-2.711-6.652-7.52-8.275C195.7,94.166,182,89.629,182,89.629a4.746,4.746,0,0,1-1.034,1.737l12.216,8.23a2.663,2.663,0,0,1,3.111-.1,2.689,2.689,0,0,1-3.013,4.455,2.66,2.66,0,0,1-1.072-2.914l-9.408-6.35,6.659,9.181a2.686,2.686,0,1,1-1.4,1.019L181.395,95.7l3.126,10.918a2.663,2.663,0,1,1-1.669.468L178.8,92.943a4.918,4.918,0,0,1-1.971.445s.083,14.429.189,24.448c.121,10.027,9.128,12.564,15.878,9.559a11.451,11.451,0,0,0,3.247-2.114,12.552,12.552,0,0,0,10.366,5.474h13.6c-1.608,3.481-1.435,7.8,1.782,12.33,6.8,9.574,16.648,23.323,16.648,23.323a5.74,5.74,0,0,1,2.182-.936l-5.9-16.21a3.158,3.158,0,1,1,1.9-.7l4.56,12.5v-13.3a3.145,3.145,0,1,1,2.016,0v13.3l4.56-12.5a3.134,3.134,0,1,1,1.9.7l-5.9,16.21a5.739,5.739,0,0,1,2.174.936s9.861-13.749,16.663-23.323c3.209-4.53,3.39-8.849,1.782-12.33h59.534a12.556,12.556,0,1,0,0-25.112h-7.377A8.976,8.976,0,0,1,318.4,87.869h62a12.556,12.556,0,1,0,0-25.112M182.5,82.969l11.6-9.06a2.677,2.677,0,0,1,4.643-2.522,2.675,2.675,0,0,1-3.571,3.888l-8.947,6.992,10.789-3.511a2.7,2.7,0,1,1,.551,1.654l-10.8,3.5,11.34.393a2.685,2.685,0,1,1-.06,1.737l-14.715-.513a4.752,4.752,0,0,1-.2,2s13.764,4.379,23.33,7.377,14.761-4.794,13.983-12.133c-.77-7.361-6.516-8.6-6.516-8.6s3.919-4.394.219-10.789c-3.685-6.4-12.473-9.649-18.445-1.6-5.987,8.056-14.542,19.676-14.542,19.676a4.865,4.865,0,0,1,1.336,1.51m-9.951-2.756a4.764,4.764,0,0,1,1.842-.808l-5.028-13.832a2.675,2.675,0,0,1-.974-5.187,2.68,2.68,0,0,1,2.612,4.6l3.881,10.661V64.3a2.675,2.675,0,0,1,.868-5.21,2.674,2.674,0,0,1,.853,5.21V75.646l3.9-10.661a2.686,2.686,0,1,1,1.623.589l-5.028,13.832a4.763,4.763,0,0,1,1.842.808s8.419-11.733,14.217-19.9,0-15.516-7.226-17.064C178.7,41.715,175.747,46.8,175.747,46.8s-2.967-5.089-10.193-3.556c-7.226,1.548-13.032,8.894-7.226,17.064s14.217,19.9,14.217,19.9M137.331,63.384c-3.7,6.4.219,10.789.219,10.789s-5.746,1.238-6.516,8.6c-.77,7.339,4.424,15.123,14,12.133,9.551-3,23.308-7.377,23.308-7.377a4.687,4.687,0,0,1-.189-2l-14.715.513a2.687,2.687,0,1,1-.06-1.737l11.34-.393-10.8-3.5a2.672,2.672,0,1,1,.551-1.654l10.789,3.511-8.947-6.992a2.678,2.678,0,1,1,.189-4.364,2.708,2.708,0,0,1,.883,3l11.59,9.06a4.827,4.827,0,0,1,1.344-1.51s-8.554-11.62-14.542-19.676c-5.972-8.049-14.761-4.794-18.445,1.6M180.949,86.6a5.21,5.21,0,1,0-5.2,5.225,5.2,5.2,0,0,0,5.2-5.225m-22.356,40.794c6.742,3.005,15.75.468,15.871-9.559.106-10.019.189-24.448.189-24.448a4.83,4.83,0,0,1-1.956-.445l-4.07,14.142a2.685,2.685,0,1,1-1.669-.468L170.084,95.7l-6.667,9.189a2.676,2.676,0,1,1-4.364-.045,2.685,2.685,0,0,1,2.967-.974l6.674-9.181-9.423,6.35a2.676,2.676,0,0,1-4.8,2.2,2.681,2.681,0,0,1,3.843-3.639l12.2-8.23a5.034,5.034,0,0,1-1.034-1.737s-13.7,4.538-23.194,7.739-9.113,12.556-4.175,18.053,10.321,3.111,10.321,3.111-.589,5.859,6.161,8.864m9.778,85.627-3.5,12.2a2.3,2.3,0,0,1-1.956,4.107,2.328,2.328,0,0,1-1.593-2.862,2.292,2.292,0,0,1,2.107-1.661l2.7-9.408-5.746,7.92a2.278,2.278,0,0,1-.015,2.68,2.316,2.316,0,1,1-1.193-3.564l5.746-7.913-8.109,5.466a2.294,2.294,0,1,1-.823-1.238l10.51-7.09a4.332,4.332,0,0,1-.883-1.495s-11.809,3.911-19.993,6.667-7.86,10.82-3.617,15.553c4.266,4.734,8.909,2.68,8.909,2.68s-.513,5.059,5.308,7.641,13.583.415,13.673-8.23.174-21.073.174-21.073a4.269,4.269,0,0,1-1.7-.385m7.127-5.459a4.492,4.492,0,1,0-4.5,4.492,4.5,4.5,0,0,0,4.5-4.492m20.892,9.272c-8.2-2.756-19.993-6.667-19.993-6.667a4.332,4.332,0,0,1-.883,1.495l10.51,7.09a2.309,2.309,0,1,1-.838,1.238l-8.109-5.466,5.746,7.913a2.318,2.318,0,1,1-1.208.883l-5.746-7.92,2.7,9.408a2.333,2.333,0,1,1-1.427.415l-3.5-12.2a4.313,4.313,0,0,1-1.7.385s.076,12.435.166,21.073,7.86,10.819,13.681,8.23,5.293-7.641,5.293-7.641,4.643,2.054,8.909-2.68,4.583-12.79-3.6-15.553m90.633-57.5s4.606-5.142.279-12.647-14.625-11.3-21.631-1.88-17.033,23.051-17.033,23.051a5.607,5.607,0,0,1,1.563,1.782l13.6-10.623a3.139,3.139,0,1,1,4.893,1.457,3.111,3.111,0,0,1-3.639.143l-10.487,8.192,12.654-4.107a3.128,3.128,0,0,1,2.152-2.952,3.148,3.148,0,1,1-1.533,4.885l-12.639,4.1,13.288.468a3.142,3.142,0,1,1-.076,2.031l-17.237-.6a5.667,5.667,0,0,1-.219,2.348s16.12,5.127,27.324,8.637,17.3-5.617,16.4-14.232-7.656-10.057-7.656-10.057m-10.215,27.181c-11.137-3.752-27.181-9.075-27.181-9.075a5.974,5.974,0,0,1-1.208,2.031l14.293,9.649a3.138,3.138,0,1,1-1.14,1.684l-11.031-7.445,7.83,10.767a3.138,3.138,0,1,1-1.646,1.193L248.9,184.558l3.677,12.783a3.137,3.137,0,1,1-1.963.559l-4.749-16.58a5.952,5.952,0,0,1-2.318.521s.106,16.913.242,28.661,10.691,14.708,18.6,11.189S269.6,211.3,269.6,211.3s6.312,2.786,12.1-3.639c5.8-6.448,6.236-17.4-4.893-21.148m-38.091-5.195-4.764,16.58A3.139,3.139,0,1,1,232,197.34l3.669-12.783-7.83,10.759a3.138,3.138,0,0,1-4.409,4.349,3.156,3.156,0,0,1-.687-4.394,3.118,3.118,0,0,1,3.466-1.148l7.814-10.767L223,190.8a3.137,3.137,0,1,1-1.125-1.684l14.293-9.649a5.676,5.676,0,0,1-1.208-2.031s-16.044,5.323-27.181,9.075a15.8,15.8,0,0,0-3.39,1.57c-.091-.181-.181-.347-.279-.529a11.7,11.7,0,0,0-2.658-3.164,16.027,16.027,0,0,0,4.855-.77c11.2-3.511,27.309-8.637,27.309-8.637a5.667,5.667,0,0,1-.219-2.348l-17.23.6a3.14,3.14,0,1,1-.068-2.031l13.281-.468-12.647-4.1a3.14,3.14,0,1,1-1.533-4.885,3.152,3.152,0,0,1,2.167,2.952l12.647,4.107-10.48-8.192a3.137,3.137,0,1,1,1.253-1.6l13.583,10.623a5.743,5.743,0,0,1,1.578-1.782s-10.034-13.621-17.033-23.051-17.3-5.617-21.639,1.88.287,12.647.287,12.647a3.359,3.359,0,0,0-.415.113,12.5,12.5,0,0,0-10.691-6.025H68.934a12.556,12.556,0,1,0,0,25.112h8.6a8.975,8.975,0,0,1,1.782,17.773H12.548a12.556,12.556,0,0,0,0,25.112H130.06a12.534,12.534,0,0,0,10.782-6.138,11.577,11.577,0,0,0,3.685-.559c8.245-2.59,20.1-6.357,20.1-6.357a4.109,4.109,0,0,1-.159-1.729l-12.684.438a2.324,2.324,0,1,1-.06-1.495l9.778-.34-9.287-3.02a2.325,2.325,0,1,1,.453-1.419l9.309,3.028-7.716-6.033a2.306,2.306,0,1,1,.166-3.745,2.271,2.271,0,0,1,.747,2.575l10,7.807a4.424,4.424,0,0,1,1.148-1.306s-7.377-10.019-12.518-16.95c-5.164-6.931-12.73-4.13-15.916,1.382s.211,9.294.211,9.294a6.638,6.638,0,0,0-2.084.959,12.476,12.476,0,0,0-5.957-1.5h-7.384a8.976,8.976,0,0,1,1.782-17.773H153.98A9.712,9.712,0,0,0,156,184.905c5,7.044,12.239,17.147,12.239,17.147a4.178,4.178,0,0,1,1.608-.687L165.5,189.443a2.315,2.315,0,1,1,1.412-.513l3.33,9.189V188.34a2.318,2.318,0,1,1,1.51,0v9.778l3.345-9.189a2.3,2.3,0,1,1,1.4.513l-4.341,11.922a4.174,4.174,0,0,1,1.593.687s7.256-10.1,12.254-17.147a9.657,9.657,0,0,0,2.008-6.478,12.265,12.265,0,0,0,3.2-.838,12.232,12.232,0,0,0,3.511,4.515,9.205,9.205,0,0,0-6.523,4.07c-5.157,6.931-12.533,16.95-12.533,16.95a4.264,4.264,0,0,1,1.155,1.306l10-7.807a2.3,2.3,0,0,1,3.994-2.174,2.3,2.3,0,0,1-3.081,3.345l-7.7,6.033,9.309-3.028a2.291,2.291,0,1,1,.453,1.419l-9.3,3.02,9.778.34a2.307,2.307,0,1,1-.06,1.495l-12.669-.438a4.432,4.432,0,0,1-.159,1.729s11.839,3.768,20.084,6.357c5.028,1.563,8.637-.31,10.555-3.45a10,10,0,0,0,6.961.03s-.71,6.871,7.21,10.389c7.905,3.518,18.468.551,18.6-11.189s.219-28.661.219-28.661a5.837,5.837,0,0,1-2.3-.521M248.4,173.9a6.112,6.112,0,1,0-6.123,6.1,6.121,6.121,0,0,0,6.123-6.1M135.195,33.364,133.073,26a2.462,2.462,0,0,1-1.019.234s.045,7.5.1,12.73c.06,5.2,4.749,6.523,8.26,4.968a4.792,4.792,0,0,0,3.2-4.613,4.775,4.775,0,0,0,5.368-1.623c2.567-2.854,2.771-7.724-2.167-9.385s-12.08-4.039-12.08-4.039a2.56,2.56,0,0,1-.529.921l6.357,4.273a1.358,1.358,0,0,1,1.608-.045,1.394,1.394,0,1,1-2.129.8l-4.893-3.307,3.481,4.779a1.384,1.384,0,0,1,1.533.5,1.4,1.4,0,1,1-2.273.03l-3.466-4.779,1.623,5.678a1.393,1.393,0,0,1,1.284,1,1.411,1.411,0,0,1-.959,1.729,1.4,1.4,0,0,1-1.721-.959,1.35,1.35,0,0,1,.544-1.525m-5.368-13.991a2.741,2.741,0,0,1,.959-.415l-2.612-7.2a1.4,1.4,0,1,1,.838-.31l2.023,5.557V11.1a1.393,1.393,0,1,1,.9,0V17.01l2.023-5.557a1.406,1.406,0,1,1,.853.31l-2.627,7.2a2.739,2.739,0,0,1,.974.415s4.364-6.093,7.392-10.351,0-8.064-3.76-8.872A4.772,4.772,0,0,0,131.495,2,4.809,4.809,0,0,0,126.18.151c-3.745.808-6.765,4.621-3.745,8.872s7.392,10.351,7.392,10.351M115.5,27.03c4.991-1.563,12.141-3.836,12.141-3.836a2.47,2.47,0,0,1-.106-1.049l-7.656.264a1.354,1.354,0,0,1-1.276.989,1.394,1.394,0,1,1-.091-2.786,1.383,1.383,0,0,1,1.344.9l5.9-.2-5.617-1.827a1.381,1.381,0,0,1-1.533.491,1.4,1.4,0,1,1,.853-2.658,1.37,1.37,0,0,1,.959,1.306l5.617,1.835-4.643-3.647a1.4,1.4,0,1,1,.544-.71l6.033,4.719a2.641,2.641,0,0,1,.695-.793s-4.44-6.048-7.55-10.231-7.686-2.5-9.6.838a4.754,4.754,0,0,0,.121,5.6,4.78,4.78,0,0,0-3.39,4.47c-.415,3.828,2.3,7.875,7.263,6.327m18.7-4.326a2.714,2.714,0,1,0-2.711,2.718,2.713,2.713,0,0,0,2.711-2.718M135,20.816l6.033-4.719a1.386,1.386,0,0,1,.461-1.555,1.4,1.4,0,1,1,.1,2.265l-4.659,3.647,5.617-1.835a1.409,1.409,0,1,1,.287.861l-5.625,1.827,5.919.2a1.354,1.354,0,0,1,1.336-.9,1.394,1.394,0,1,1-1.382,1.8l-7.656-.264a2.644,2.644,0,0,1-.091,1.049s7.158,2.273,12.126,3.836c4.983,1.548,7.679-2.5,7.286-6.327a4.792,4.792,0,0,0-3.4-4.47,4.782,4.782,0,0,0,.121-5.6c-1.933-3.337-6.486-5.021-9.6-.838s-7.565,10.231-7.565,10.231a2.687,2.687,0,0,1,.687.793M122.571,43.927c3.511,1.555,8.2.234,8.26-4.968.045-5.225.1-12.73.1-12.73A2.465,2.465,0,0,1,129.9,26l-2.114,7.369a1.394,1.394,0,1,1-2.137.755,1.382,1.382,0,0,1,1.268-1l1.638-5.678-3.481,4.779a1.383,1.383,0,0,1,0,1.616,1.4,1.4,0,1,1-.725-2.144l3.466-4.779-4.893,3.307a1.393,1.393,0,0,1-2.507,1.133,1.4,1.4,0,0,1,.385-1.933,1.371,1.371,0,0,1,1.616.045l6.342-4.273a2.712,2.712,0,0,1-.529-.921s-7.12,2.378-12.065,4.039-4.749,6.531-2.182,9.385a4.8,4.8,0,0,0,5.383,1.623,4.792,4.792,0,0,0,3.2,4.613" transform="translate(0 -0.004)" fill="#fff"/>
    </g>
  </g>
</svg>
