<svg xmlns="http://www.w3.org/2000/svg" width="22" height="19.357" viewBox="0 0 22 19.357">
  <path id="FontAwsome_tshirt_" data-name="FontAwsome (tshirt)" d="M21.636,3.648,14.945,0a4.784,4.784,0,0,1-4,1.785A4.784,4.784,0,0,1,6.936,0L.244,3.648A.639.639,0,0,0,0,4.461L1.963,8.79a.532.532,0,0,0,.739.272L4.647,8.015a.554.554,0,0,1,.791.544v9.588a1.158,1.158,0,0,0,1.1,1.21h8.8a1.158,1.158,0,0,0,1.1-1.21V8.556a.555.555,0,0,1,.791-.544l1.945,1.047a.526.526,0,0,0,.739-.272L21.88,4.461A.633.633,0,0,0,21.636,3.648Z" transform="translate(0.06)" fill="#d3992c"/>
</svg>
