<svg xmlns="http://www.w3.org/2000/svg" xmlns:xlink="http://www.w3.org/1999/xlink" width="20.001" height="20" viewBox="0 0 20.001 20">
  <defs>
    <clipPath id="clip-path">
      <rect id="長方形_2" data-name="長方形 2" width="20.001" height="20" fill="#9f1627"/>
    </clipPath>
  </defs>
  <g id="グループ_5" data-name="グループ 5" transform="translate(0 0)">
    <g id="グループ_4" data-name="グループ 4" transform="translate(0 0)" clip-path="url(#clip-path)">
      <path id="パス_25" data-name="パス 25" d="M10,0A10,10,0,1,0,20,10,10,10,0,0,0,10,0M9.43,6.727v2.7H5.335a10.024,10.024,0,0,1,.529-2.7Zm-3.1-1.141a9.529,9.529,0,0,1,1.582-2.3A9.1,9.1,0,0,1,9.43,2V5.585Zm3.1,4.987v2.7H5.855a10.066,10.066,0,0,1-.521-2.7Zm0,3.844v3.613A9.064,9.064,0,0,1,7.915,16.74a9.513,9.513,0,0,1-1.593-2.324Zm1.141,0H13.68a9.532,9.532,0,0,1-1.592,2.324,9.073,9.073,0,0,1-1.516,1.289Zm0-1.141v-2.7h4.1a10.007,10.007,0,0,1-.521,2.7Zm0-3.844v-2.7h3.567a10.053,10.053,0,0,1,.529,2.7Zm0-3.845V2a9.069,9.069,0,0,1,1.516,1.288,9.495,9.495,0,0,1,1.581,2.3Zm2.349-3.08a10.175,10.175,0,0,0-1.376-1.221,8.776,8.776,0,0,1,6.129,4.3H14.92a10.694,10.694,0,0,0-2-3.08m-5.838,0a10.713,10.713,0,0,0-2,3.08H2.327a8.78,8.78,0,0,1,6.133-4.3A10.234,10.234,0,0,0,7.082,2.506M1.774,6.727H4.659a11.207,11.207,0,0,0-.465,2.7H1.17a8.826,8.826,0,0,1,.6-2.7m2.419,3.845a11.264,11.264,0,0,0,.457,2.7H1.774a8.816,8.816,0,0,1-.6-2.7Zm.879,3.844a10.715,10.715,0,0,0,2.011,3.105A10.157,10.157,0,0,0,8.419,18.71a8.781,8.781,0,0,1-6.091-4.294Zm7.849,3.105a10.7,10.7,0,0,0,2.011-3.105h2.742a8.783,8.783,0,0,1-6.089,4.294,10.1,10.1,0,0,0,1.336-1.189m5.308-4.246H15.352a11.189,11.189,0,0,0,.457-2.7h3.021a8.793,8.793,0,0,1-.6,2.7m-2.42-3.844a11.207,11.207,0,0,0-.465-2.7h2.884a8.782,8.782,0,0,1,.6,2.7Z" transform="translate(0 0)" fill="#9f1627"/>
    </g>
  </g>
</svg>
