<svg id="グループ_172" data-name="グループ 172" xmlns="http://www.w3.org/2000/svg" xmlns:xlink="http://www.w3.org/1999/xlink" width="30" height="14.671" viewBox="0 0 30 14.671">
  <defs>
    <clipPath id="clip-path">
      <rect id="長方形_140" data-name="長方形 140" width="30" height="14.671" transform="translate(0 0)" fill="#d3992c"/>
    </clipPath>
  </defs>
  <g id="グループ_171" data-name="グループ 171" clip-path="url(#clip-path)">
    <path id="パス_155" data-name="パス 155" d="M6.9,1.415V2.622C9.806,2.895,11.08,0,14.151,0A3.17,3.17,0,0,1,16.02.618L19.4.481l5.934.245a11.677,11.677,0,0,1,2.727.446c.865.309,1.936,1,1.936,2,0,1.8-3.423,1.9-4.663,1.969l-3.8.173a1.763,1.763,0,0,1,.586,1.239,2.059,2.059,0,0,1-.2.793,2.216,2.216,0,0,1,1.17,1.9,1.1,1.1,0,0,1-.344.9,2.248,2.248,0,0,1,.831,1.588c0,2-3.141,2.935-4.728,2.935a2.632,2.632,0,0,1-2.313-.967c-2.731-.069-3.9.312-6.286-1.138A4.99,4.99,0,0,0,6.9,11.459V13.22l-2.79.138-.385.8L0,13.7V1.761ZM3.971,11.768H5.833V2.622L3.627,2.483Zm2.9-1.311a5.761,5.761,0,0,1,3.588,1.279,7.217,7.217,0,0,0,4.382,1.139h1.449v-.553c-.931-.174-1.24-1-1.24-1.865-1.351-.2-1.59-.794-1.968-2h-1.9L8.906,7.63V7.385l.245-.277.27.07a9.643,9.643,0,0,0,2.213.312,3.748,3.748,0,0,0,2.9-1.415l-1.49-1.829.418-.485,1.69,1.416A4.194,4.194,0,0,0,17.6,6.351c.557,0,1.487-.276,1.487-.966,0-.52-.655-1.106-1.006-1.45L16.256,2.07a2.927,2.927,0,0,0-2.345-1.1c-2.658,0-4.35,2.968-7.037,2.794ZM19.608,4.315H21.75l4.9-.21c.761-.032,2.174-.032,2.174-1.1,0-1.211-2.723-1.414-3.55-1.522l-5.251-.237-2.83.135ZM17.675,7.142a8.173,8.173,0,0,1-2-.481,2.021,2.021,0,0,0-1.623,1.622A1.243,1.243,0,0,0,15.43,9.49a18.118,18.118,0,0,0,3.557-1.243c.652-.308,2.041-.862,2.041-1.76a1.011,1.011,0,0,0-.558-.861,3.5,3.5,0,0,1-2.8,1.516M16.088,10.5a.933.933,0,0,0,.966,1.065,13.679,13.679,0,0,0,3.489-.829c.584-.236,1.41-.862,1.41-1.587a.858.858,0,0,0-.826-.9,2.342,2.342,0,0,0-.861.309,22.083,22.083,0,0,1-3.454,1.488c-.207.068-.724.173-.724.453M19.3,11.976a12.38,12.38,0,0,1-1.487.416c-.309.033-.621.137-.621.519,0,.862,1,1,1.691,1,.93,0,3.588-.759,3.588-2,0-.207-.3-.967-.549-.967a3.832,3.832,0,0,0-.893.381l-.9.379Z" fill="#d3992c"/>
  </g>
</svg>
