<svg xmlns="http://www.w3.org/2000/svg" width="23.001" height="17.871" viewBox="0 0 23.001 17.871">
  <g id="グループ_386" data-name="グループ 386" transform="translate(-115 -178.564)">
    <path id="パス_282" data-name="パス 282" d="M231.97,180.361l-.007.037H244.61l-.007-.037h.046l.437-1.8h-13.6l.437,1.8Z" transform="translate(-111.785)" fill="#d3992c"/>
    <path id="パス_283" data-name="パス 283" d="M136.956,254.6h-.888v.931h-.981V254.6H134.2v.931h-1v-4.1h.151A5.582,5.582,0,0,0,138,249.211a7.613,7.613,0,0,1-4.961-4.839h-13.08A7.614,7.614,0,0,1,115,249.211a5.582,5.582,0,0,0,4.651,2.219h.151v4.1h-.944V254.6h-.888v.931h-1.038V254.6h-.888v.931H115v.888h1.045v1.836H115v1.332h23v-1.332h-1.045V256.42H138v-.888h-1.045Zm-18.986,3.655h-1.038V256.42h1.038Zm1.832,0h-.944V256.42h.944Zm3.409,0h-2.4v-3.511h2.4Zm0-4.4h-2.4V251.43h2.4Zm5.69,0h-4.8V251.43h4.8Zm3.288,4.4h-2.4v-3.511h2.4Zm0-4.4h-2.4V251.43h2.4Zm2.01,4.4h-1V256.42h1Zm1.868,0h-.981V256.42h.981Z" transform="translate(0 -63.152)" fill="#d3992c"/>
  </g>
</svg>
