<svg xmlns="http://www.w3.org/2000/svg" xmlns:xlink="http://www.w3.org/1999/xlink" width="22.943" height="24.793" viewBox="0 0 22.943 24.793">
  <defs>
    <clipPath id="clip-path">
      <rect id="長方形_131" data-name="長方形 131" width="14.945" height="20" fill="#d3992c"/>
    </clipPath>
  </defs>
  <g id="グループ_158" data-name="グループ 158" transform="translate(0 7.472) rotate(-30)">
    <g id="グループ_157" data-name="グループ 157" clip-path="url(#clip-path)">
      <path id="パス_143" data-name="パス 143" d="M0,10A14.774,14.774,0,0,0,.863,15.18,9.046,9.046,0,0,0,4.533,19.5c1.691.935,3.706.468,3.706-.612V15.252c0-1.151-1.691-.971-2.338-.576s-1.583-.468-1.781-1.655A18.764,18.764,0,0,1,3.922,10a18.763,18.763,0,0,1,.2-3.022C4.317,5.79,5.253,4.926,5.9,5.322s2.338.576,2.338-.576V1.113C8.239.033,6.224-.434,4.533.5A9.046,9.046,0,0,0,.863,4.818,14.774,14.774,0,0,0,0,10" transform="translate(0 0.001)" fill="#d3992c"/>
      <path id="パス_144" data-name="パス 144" d="M67.753,33.017a.648.648,0,0,1-.373-1.177,5.55,5.55,0,0,0,0-9.1.648.648,0,0,1,.745-1.06,6.845,6.845,0,0,1,0,11.216.645.645,0,0,1-.372.118" transform="translate(-56.1 -18.029)" fill="#d3992c"/>
      <path id="パス_145" data-name="パス 145" d="M59.067,41.342a.648.648,0,0,1-.373-1.177,3.071,3.071,0,0,0,0-5.034.648.648,0,0,1,.745-1.06,4.366,4.366,0,0,1,0,7.153.645.645,0,0,1-.372.118" transform="translate(-48.838 -28.385)" fill="#d3992c"/>
    </g>
  </g>
</svg>
