<svg xmlns="http://www.w3.org/2000/svg" xmlns:xlink="http://www.w3.org/1999/xlink" width="22" height="13.871" viewBox="0 0 22 13.871">
  <defs>
    <clipPath id="clip-path">
      <rect id="長方形_132" data-name="長方形 132" width="22" height="13.871" fill="#d3992c"/>
    </clipPath>
  </defs>
  <g id="グループ_163" data-name="グループ 163" transform="translate(0 0)">
    <g id="グループ_159" data-name="グループ 159" transform="translate(0 0.001)" clip-path="url(#clip-path)">
      <path id="パス_146" data-name="パス 146" d="M4.826,1.861,3.848,6.232H1.333a.954.954,0,0,0-.952.952v2.48A.954.954,0,0,0,0,10.425v1.116H2.218v0a2.922,2.922,0,0,1,5.843,0v0h6.258v0a2.922,2.922,0,0,1,5.844,0v0H22V7.185a.956.956,0,0,0-.95-.952h-.634l-.979-4.372A2.5,2.5,0,0,0,17.117,0H7.147A2.5,2.5,0,0,0,4.826,1.861m8.815-.62h3.476a1.264,1.264,0,0,1,1.113.89l.917,4.1H13.641ZM12.465,6.232H5.118l.916-4.1a1.264,1.264,0,0,1,1.114-.89h5.318Z" transform="translate(0 0)" fill="#d3992c"/>
      <path id="パス_147" data-name="パス 147" d="M7.614,17.32a2.334,2.334,0,1,0,2.337,2.338A2.335,2.335,0,0,0,7.614,17.32" transform="translate(-2.476 -8.117)" fill="#d3992c"/>
      <path id="パス_148" data-name="パス 148" d="M30.392,17.32a2.334,2.334,0,1,0,2.337,2.338,2.34,2.34,0,0,0-2.337-2.338" transform="translate(-13.15 -8.117)" fill="#d3992c"/>
    </g>
  </g>
</svg>
