<?xml version="1.0" encoding="UTF-8"?>
<svg id="_レイヤー_1" data-name="レイヤー_1" xmlns="http://www.w3.org/2000/svg" xmlns:xlink="http://www.w3.org/1999/xlink" version="1.1" viewBox="0 0 40.9 27.8">
  <!-- Generator: Adobe Illustrator 30.2.1, SVG Export Plug-In . SVG Version: 2.1.1 Build 1)  -->
  <defs>
    <style>
      .st0 {
        fill: none;
      }

      .st1 {
        fill: #c3c3c3;
      }

      .st2 {
        clip-path: url(#clippath);
      }
    </style>
    <clipPath id="clippath">
      <rect class="st0" y="3.3" width="40.9" height="22.2"/>
    </clipPath>
  </defs>
  <g class="st2">
    <g id="_グループ_196" data-name="グループ_196">
      <path id="_パス_159" data-name="パス_159" class="st1" d="M20.5,17.5c-1.8,0-3.3-1.3-3.4-3.1,0-1.8,1.6-3.2,3.4-3.1,1.8,0,3.3,1.3,3.4,3.1,0,1.8-1.6,3.2-3.4,3.1"/>
      <path id="_パス_160" data-name="パス_160" class="st1" d="M37.2,12.4S31.4,3.3,20.3,3.3,3.5,12.4,3.5,12.4c-1,.9-2.2,1.6-3.5,2,1.3.4,2.5,1.1,3.5,2,0,0,5.8,9.2,16.9,9.2s16.9-9.2,16.9-9.2c1.1-.9,2.3-1.6,3.7-2-1.3-.4-2.6-1.1-3.7-2M20.4,21c-3.7.1-6.9-2.8-7-6.5.1-3.7,3.3-6.7,7-6.5,3.7-.1,6.9,2.8,7.1,6.5-.1,3.8-3.3,6.7-7.1,6.5"/>
    </g>
  </g>
</svg>