<svg xmlns="http://www.w3.org/2000/svg" width="803.041" height="653.779" viewBox="0 0 803.041 653.779">
  <g id="グループ_381" data-name="グループ 381" transform="translate(16112.06 23729)">
    <g id="map" transform="translate(-16111 -23729)">
      <g id="レイヤー_1" transform="translate(0)">
        <path id="パス_59" data-name="パス 59" d="M703.015,419.271c-1.309-.327-3.437-.573-4.419-2.209-.9-1.555-1.309-1.309-3.191-2.782-1.882-1.555-1.555-1.309-4.091-2.209-2.455-.9-2.209-.573-4.992-.573a12.776,12.776,0,0,1-5.892-.9c-2.455-.9,0,0,0-.9s-.327-2.21-.327-4.419-1.882-2.455-5.646-5.319c-3.764-2.782.9-3.028-.327-5.237-1.309-2.209,0,0-1.309-.327-1.227-.327-3.437-3.109-4.419-5.892-.9-2.782,1.882-2.209,2.782-2.537.982-.245,3.109-3.028,4.419-4.337,1.227-1.309-.327-2.782-.327-4.091s-.9-2.537-.573-3.764c.327-1.309,0-1.637,0-3.11a3.494,3.494,0,0,0-1.637-3.519c-1.555-1.146-6.137.245-6.137.245s-2.291,1.064-7.037-1.8c-4.664-2.946-5.237-.573-5.237-.573a26.711,26.711,0,0,1-5.892.573,10.925,10.925,0,0,1-6.383-2.373l.573-1.718c.573-1.8,0-2.946,0-5.81s0-2.373-.573-4.091c-.573-1.8,0-2.946-1.228-7.61-1.145-4.746-.573-2.373-.573-6.464s0,0-.573-4.091c-.573-4.173,0,0-2.291-2.373s-2.946-3.437-3.519-6.464a15.183,15.183,0,0,0-2.291-5.237h-2.946a22.162,22.162,0,0,1-5.237,1.227c-1.8,0-3.519-2.373-3.519-2.373v-1.718c0-1.8-2.291-1.8-2.291-1.8a30.476,30.476,0,0,0-5.237.573c-2.946.573-2.373,1.637-2.373,1.637a29.774,29.774,0,0,1-.573,5.237c-.573,2.946-4.746,5.892-4.746,5.892H596.8c-4.091,0-1.718-2.946-2.291-4.746-.573-1.718-2.373,0-5.237-.573s0,0-2.864-1.064c-2.946-1.146-2.373-2.946-2.373-2.946l-1.227-3.437a53.65,53.65,0,0,1-4.091-3.6c-1.8-1.718-4.664,0-6.464,0s-2.373.573-4.664.573a14.953,14.953,0,0,1-4.091-.573H547.7c-5.81,0,0,0-1.718-1.718s0,0,0-1.8-3.519,0-5.892,0h-3.519s-4.664-4.664-9.328-5.237,0,0-1.8,0-1.8-2.946-1.8-2.946l.573-4.091h.327l-4.828-.573a6.483,6.483,0,0,0-4.173,2.128,9.413,9.413,0,0,0-2.537,4.664s-1.309-6.383-6.383-3.846c-4.992,2.537-6.71,4.664-6.71,4.664s.409,1.146-2.946-1.309c-3.355-2.537-6.792-7.2-9.329-2.946s-2.946,5.892-4.173,7.528c-1.309,1.637-1.309,3.355-4.255,5.073s-4.173,5.073-7.2,5.073-13.911-2.128-16.038-2.537,0-1.718-3.846-.818c-3.764.818-.818-1.309-3.764.818s-2.946,4.255-4.664,4.255-2.537-1.718-5.892-2.128c-3.437-.409-3.846-2.128-6.792.409s2.946,1.309-2.946,2.537c-5.892,1.309-5.892.818-9.656-.409-3.846-1.309-10.147-5.974-12.274-3.355-2.046,2.537-2.537,7.61-2.946,9.247-.409,1.718-.409,2.946-1.309,4.664-.818,1.718,1.718,2.537-2.946,3.846s-6.792,2.128-7.2,0l-.409-2.128s-5.483-.818-8.019,1.718-4.664,5.483-5.892,6.792c-1.309,1.309-1.309,1.718-2.946,2.537s1.718,7.119-1.227,10.065-5.073,4.664-5.073,4.664-.409,3.846-1.309,5.073c-.818,1.227-3.355,1.637-3.764,2.864-.409,1.309,2.537,5.974-.409,9.329s-9.247,3.846-9.247,3.846-1.718-2.128-2.946,2.946a36.751,36.751,0,0,0-1.309,8.428,13.553,13.553,0,0,1,.818,3.355c.409,2.537-4.664,5.483-4.664,5.483s-.818,1.637-1.718,3.355a11.522,11.522,0,0,0-1.309,6.3c.409,2.128,2.946,6.383,2.946,6.383l-.409,5.483s-1.309,2.046-2.537,2.455l-1.227.409a39.836,39.836,0,0,0-4.664,7.2c-1.309,2.946-1.637,4.255-3.355,6.383s-2.128,4.582-5.073,5.4a24.867,24.867,0,0,1-5.4,1.309c-3.437.409-.409-1.309-3.437.409-2.946,1.718-3.355,2.537-5.892,1.718s-2.537-1.309-4.664-1.309h-4.173c-3.764,0-2.946-.409-7.2-.409s-4.664.818-7.61,0-3.355-2.046-4.664-2.046,0-.818-3.355,0c-3.355.736,1.718-1.309-3.355.736-5.073,2.128-6.383,2.537-6.792,5.073s2.128,4.255,2.128,4.255,2.946,5.073,2.946,6.792v7.119c0,1.718-3.846,3.437.409,3.437a28.469,28.469,0,0,1,7.119.818v3.846c0,2.537-.409,4.255,3.846,6.792,4.173,2.455,2.537,0,5.892,2.864,3.355,2.946,1.718-.409,3.355,2.946,1.718,3.355,2.128,2.946,2.128,5.483s.409,3.764-.409,5.073c-.818,1.227,3.846-.818-.818,1.227a54.724,54.724,0,0,0-9.656,6.383s-4.664,3.355-6.383,4.255c-1.637.818-5.483.818-8.837,2.946s-2.537.818-5.892,3.764c-3.437,2.946-1.718.409-3.437,2.946-1.718,2.455-1.309,1.227-1.718,4.173a77.543,77.543,0,0,0-.409,9.738v2.946s-.818,2.946-2.537,2.946h-5.892s-.818,0-1.718,2.046c-.818,2.128,1.309,2.128-.818,4.664a28.172,28.172,0,0,0-3.355,5.483,21.621,21.621,0,0,1-3.355,3.355c-2.046,1.718-1.718,1.718-3.764,4.255-2.128,2.455.409,7.119-4.255,3.273s-1.309-2.946-7.2-6.71a49.232,49.232,0,0,1-8.838-6.792s-1.718-2.946-3.355-.818-2.128,4.255-1.309,5.483a16.088,16.088,0,0,1,2.128,3.846c.818,2.046-.409,2.537.818,3.764a12.88,12.88,0,0,1,2.128,2.946,10.492,10.492,0,0,0,2.864,5.073,9.7,9.7,0,0,0,1.064.982h.082c0,.164.409.491,1.391,1.555,2.946,2.946,3.846,1.718,4.664,4.255.818,2.455-.818,9.247-1.227,10.556s-.818,1.718-1.309,3.355c-.409,1.718-2.537,2.537,0,3.764,2.537,1.309,3.355,1.309,4.173,2.946s1.309,1.637,1.309,3.764v5.483c0,2.128.409,2.537.409,3.846s.409,1.718.409,3.355S232.5,620,233.4,621.225c.818,1.309,1.718,2.537.818,4.255L233.4,627.2a6.038,6.038,0,0,1-2.946,2.537c-2.046.818-2.946-.409-3.764,1.718A6.428,6.428,0,0,1,225.3,633.5h.573c3.355.409,0,0,.409,1.309.409,1.227,1.718.818,4.664.818s2.537-.491,4.664-.491,3.355.818,5.483.818,1.637,1.309,1.637,1.309l1.309,5.073v3.846l.818,5.483-4.664-.409-1.718,1.718a12.132,12.132,0,0,0-2.537,4.173,38.362,38.362,0,0,1-5.973,3.355c-4.173,2.128-.409,2.537-.409,4.255a19.625,19.625,0,0,1-.409,4.664c-.409,2.128-1.718,1.309-2.946,2.128-1.309.818-1.309,2.128-1.309,3.273s2.128,4.255.409,5.483c-1.718,1.309-5.483.409-5.483.409l1.227,5.482-.409,1.718c-.409,1.718-1.718,1.309-2.128,2.537-.409,1.309,0,0,3.764.409s1.637-.409,2.537-1.718a32.686,32.686,0,0,0,1.718-3.355l4.173-1.309c4.255-1.227,3.846-2.128,3.846-2.128l.409-1.309c.409-1.309,2.537-.409,4.255-1.309,1.637-.818,4.173.409,4.173.409s3.437,2.946,7.61,6.383c4.255,3.355,2.537,2.537,2.537,2.537a14.818,14.818,0,0,0,3.846,7.119c2.946,2.946,1.637-.818,3.764-1.309,2.046-.409,0,0,2.537.818s3.846,2.128,6.3.409c2.537-1.718,2.537-2.537,2.537-2.537s3.437-3.273,7.2-6.3c3.764-2.946,2.946-1.718,6.3-3.355,3.355-1.718,0,0,2.537,0s2.128,1.637,3.846,1.227,1.718-1.227,3.437-2.946c1.637-1.718,1.637,0,6.383.409,4.664.409,3.764.818,5.892,2.128s1.309,3.846,4.664,5.973c3.355,2.046,0,0,2.537,2.046,2.537,2.128,4.255,2.946,5.073,3.846.818.818,0,0-2.537,3.846-2.537,3.764.818,1.718,2.537,1.718s0,0,8.837,3.764c8.919,3.846,2.537.409,5.073,0s0-1.718,0-3.355-.818-3.846-1.309-5.974c-.245-1.391-.573-2.782-.818-4.173-.409-2.128-1.309-2.946-1.309-4.255s-5.892-4.255-9.656-7.2c-3.846-2.946,0,0-3.846-1.718-3.764-1.718-2.128-1.309-4.664-3.355-2.537-2.127-1.718-4.582-.409-5.892A9.544,9.544,0,0,0,314,667.867a55.462,55.462,0,0,0-.409-6.383,8.567,8.567,0,0,1,1.718-5.974c2.128-2.864,0,0,8.019-.327,8.019-.491,2.128-.491,2.128-.491l3.764-7.528s.409-3.764.818-7.2c.409-3.355-.409-1.718-.409-3.355s-2.537-2.046-2.537-2.046v-4.255c0-1.718-.818-2.537-1.718-5.482-.818-2.946,0,0,.409-1.719a24.47,24.47,0,0,1,1.718-4.255l2.7-7.283s.982-4.828,1.718-7.937,1.718-3.682,2.946-4.582a14.05,14.05,0,0,1,4.582-2.619c2.373-.982,2.373,0,4.091,0a23.076,23.076,0,0,1,7.692,1.718c3.6,1.146,2.7.409,2.7.409H356.3c.736,0,.491-2.619,1.227-4.091.655-1.391,2.128-7.528,2.619-8.756a6.455,6.455,0,0,0,.245-2.864,27.71,27.71,0,0,1,2.618-3.355c.736-.491,2.209-1.473,3.355-2.209,1.227-.655,1.227-1.473,2.455-2.864,1.146-1.473.736-2.619.9-3.355.245-.655,1.473-2.864,1.473-2.864l6.3-9.9s4.337-6.3,5.81-7.446c1.473-1.309.9-.736,2.619-1.309a7.739,7.739,0,0,1,2.946-.164c.736,0,.491,2.373.982,4.828.491,2.373.491,1.227,1.964.9,1.391-.245-.246-1.718-.246-2.864a11.308,11.308,0,0,0-.245-2.864c-.245-1.309-.491-1.718-1.146-5.646-.736-3.846.491-2.373,1.882-3.846,1.473-1.473,0,0,1.718-.736,1.146-.491,2.128-.982,2.946-1.391,1.146-.736,0,0,0-1.718v-2.7c0-.9,1.882-.9,2.618-1.391s2.864-1.473,3.11-2.373c.245-1.064-.9-4.828-.9-5.646s-1.473-1.391-1.473-3.437,1.882-1.146,3.6-2.373c1.637-1.309,0-1.964,0-3.109s-.164-1.718-.164-2.7-2.209-.245-4.664-1.146c-2.373-.9-.245-2.455-.245-2.455a9.078,9.078,0,0,1,3.355-7.937c3.6-2.864-.164-.9-1.882-1.882-1.718-1.064-.736-1.064-1.718-2.209-.982-1.309-2.209-3.682.491-5.728,2.7-2.21,2.209-.736,3.846-2.455,1.718-1.718.491-1.718.982-3.109a8.593,8.593,0,0,0,.491-2.455s-2.619-3.682-.9-6.055,3.437-1.146,5.483-2.373c2.209-1.309,0,0,0-.736s0-.9.736-2.619.982-1.309,4.337-2.209c3.355-1.064,0,0,1.718.246s.736,1.718.736,1.718-2.455,1.146,1.391,4.091c3.846,2.864,1.964,0,4.091,0h1.8v2.209l.736,2.864c.655,2.864,0,0,1.718-2.455,1.718-2.373.736-1.718.736-4.091a26.632,26.632,0,0,1,.164-3.928c.245-1.718.736-.9,1.473-1.637s.982-.736,2.946-1.064c1.964-.245,3.109,1.064,3.846,1.064a35.659,35.659,0,0,1,9-1.064c6.055,0,0,0,1.882-.9,1.882-1.064,0,0,2.128-.245,2.209-.245,1.391-.982,2.209-1.391a11.134,11.134,0,0,1,2.373-1.718c1.473-.736,1.718-.491,7.283-1.473s.736-1.718,1.964-2.946-.982-2.128-.982-2.128l-3.6.655-1.964.736s-2.209.9-3.355-.736c-1.227-1.718-2.209,1.964-2.209,1.964a7.744,7.744,0,0,0-2.619,1.064c-1.227.655-.245,1.882-.491,2.864-.246.9-1.964-.491-4.337-2.209-2.455-1.718-.982,2.209-2.209,2.619-1.146.491,0,0-1.473-.409-1.391-.491-.736-1.309-1.391-2.864-.736-1.718,0,0-1.718,4.746-1.718,4.91-1.718-.9-1.718-.9a4.934,4.934,0,0,1,1.473-5.073c2.373-2.128,0,0,.982-.409.982-.491,1.227-.246,3.846-.491,2.7-.245,2.209,0,3.682-.491s.9-.655,2.209-1.391c1.227-.655-1.473-2.128-.736-2.619s1.964-.491,3.109-.982c1.227-.409,6.3.982,7.528.245,1.227-.655,1.882-1.718,3.109-2.128,1.227-.491,5.155.573,5.155.573l2.782-2.291c2.864-2.209,0,0,0-2.209a8.308,8.308,0,0,1,1.146-4.01l5.646,2.291a22.316,22.316,0,0,1,4.5-3.437c2.291-1.064,2.864-2.209,5.646-3.928,2.782-1.637,5.564-2.291,10.638-4.01s0,0,3.437-2.209c3.355-2.291,0,0,2.209-1.227,2.291-1.064,1.718-3.273,6.219-5.564,4.582-2.291,15.793-5.073,19.721-5.073h6.71a106.452,106.452,0,0,1,11.292.573c6.792.573,3.437.491,6.219,2.209s2.782,2.864,2.782,2.864,3.355,0,7.856.491a35.659,35.659,0,0,0,8.51,0,19.014,19.014,0,0,0,8.347,4.5c5.073,1.227,2.864.573,7.855.573s5.646,0,9,.573c3.355.491,3.355,1.718,9.574,5.646,6.219,4.01,2.782,4.01,3.355,7.283.573,3.355,0,0,2.291,5.728,2.209,5.564,2.209,2.782,3.846,3.928a18.989,18.989,0,0,0,5.073,2.782c2.782,1.146,3.928,1.146,9,2.782s2.782,4.01,3.928,6.219a35.587,35.587,0,0,1,2.291,5.646c.573,1.718,0,5.073,0,5.073a40.82,40.82,0,0,0,5.073,2.209c1.637.573.573,5.073.573,5.073a10.68,10.68,0,0,0,5.646,5.564c4.5,2.291,3.355,2.291,7.283,5.073s0,0,1.718,3.437c1.718,3.355,0,0,0,5.073s2.782,3.928,2.782,3.928h5.073a9,9,0,0,1,5.073,1.718c1.637,1.064,2.209,2.782,3.355,4.5s4.5,7.856,4.5,7.856l1.146-4.5a47.618,47.618,0,0,0,2.209-5.073c.573-1.718,1.146-10.065,1.146-10.065s.573-5.073,1.146-7.283c.573-2.291,3.355-15.22,3.355-17.511a16.126,16.126,0,0,1,.491-4.01l2.864-9,4.5-8.428s6.219-14.647,6.71-16.366c.573-1.718,7.855-14.075,7.855-14.075l.573-2.537-2.209-1.8a23.157,23.157,0,0,0-2.455-.9l.409.246Z" transform="translate(-40.162 -54.94)" fill="#f2e4ca" stroke="#fff" stroke-linejoin="round" stroke-width="2"/>
        <path id="パス_60" data-name="パス 60" d="M191.9,609.982a5.635,5.635,0,0,0,2.946-2.537l.818-1.718c.818-1.718,0-2.946-.818-4.255s.818-8.428.818-10.065-.409-2.128-.409-3.355-.409-1.718-.409-3.846v-5.483c0-2.128-.409-2.128-1.309-3.764-.818-1.718-1.718-1.718-4.173-2.946-2.537-1.309-.409-2.128,0-3.764a16.884,16.884,0,0,1,1.309-3.355c.409-1.309,2.046-8.1,1.227-10.556-.818-2.537-1.637-1.309-4.664-4.255-.982-1.064-1.309-1.391-1.391-1.473h0s-.245-.245-1.146-1.064a10.491,10.491,0,0,1-2.864-5.073,11.23,11.23,0,0,0-2.128-2.946c-1.309-1.227,0-1.718-.818-3.764a16.1,16.1,0,0,0-2.128-3.846c-.818-1.227-.409-3.355,1.309-5.482s3.355.818,3.355.818a59.687,59.687,0,0,0,8.838,6.792c5.892,3.764,2.537,2.864,7.2,6.71s2.128-.818,4.255-3.273c2.046-2.537,1.718-2.537,3.764-4.255a21.222,21.222,0,0,0,3.355-3.355,28.175,28.175,0,0,1,3.355-5.482c2.128-2.537,0-2.537.818-4.664.818-2.046,1.718-2.046,1.718-2.046h5.892c1.718,0,2.537-2.946,2.537-2.946v-2.946a77.533,77.533,0,0,1,.409-9.738c.409-2.946,0-1.718,1.718-4.173,1.718-2.537,0,0,3.437-2.946,3.355-2.946,2.537-1.637,5.892-3.764s7.2-2.128,8.838-2.946a69.616,69.616,0,0,0,6.383-4.255,58.5,58.5,0,0,1,9.656-6.383c4.664-2.046,0,0,.818-1.227.818-1.309.409-2.537.409-5.073s-.409-2.128-2.128-5.483c-1.637-3.355,0,0-3.355-2.946-3.355-2.864-1.718-.409-5.892-2.864-4.255-2.537-3.846-4.255-3.846-6.792v-3.846a29.288,29.288,0,0,0-7.119-.818c-4.173,0-.409-1.718-.409-3.437v-7.119c0-1.637-2.946-6.792-2.946-6.792s-2.537-1.718-2.128-4.255,1.718-2.946,6.792-5.073,0,0,3.355-.737c3.355-.818,2.128,0,3.355,0s1.718,1.227,4.664,2.046,3.355,0,7.61,0,3.437.409,7.2.409h4.173c2.128,0,2.128.409,4.664,1.309,2.537.818,2.946,0,5.892-1.718s0,0,3.437-.409c3.355-.409,2.537-.409,5.4-1.309,2.946-.818,3.355-3.273,5.073-5.4s2.128-3.437,3.355-6.383a45.147,45.147,0,0,1,4.664-7.2l1.227-.409c1.309-.409,2.537-2.455,2.537-2.455l.409-5.483s-2.537-4.255-2.946-6.383a10.244,10.244,0,0,1,1.309-6.3c.818-1.718,1.718-3.355,1.718-3.355s5.073-2.946,4.664-5.483a13.559,13.559,0,0,0-.818-3.355,37.338,37.338,0,0,1,1.309-8.428c1.309-5.073,2.946-2.946,2.946-2.946s6.383-.409,9.247-3.846c2.946-3.437,0-8.1.409-9.328s2.946-1.637,3.764-2.864,1.309-5.073,1.309-5.073,2.128-1.718,5.073-4.664-.409-9.247,1.227-10.065c1.718-.818,1.718-1.309,2.946-2.537s3.355-4.255,5.892-6.792,8.019-1.718,8.019-1.718l.409,2.128c.409,2.128,2.537,1.309,7.2,0s2.046-2.128,2.946-3.846c.818-1.718.818-2.946,1.309-4.664.409-1.637.818-6.71,2.946-9.247s8.428,2.128,12.274,3.355c3.764,1.309,3.764,1.718,9.656.409s0,0,2.946-2.537,3.355-.818,6.792-.409c3.355.409,4.173,2.128,5.892,2.128s1.637-2.128,4.664-4.255c2.946-2.128,0,0,3.764-.818,3.846-.818,1.718.409,3.846.818s13.011,2.537,16.038,2.537,4.255-3.355,7.2-5.073,2.946-3.437,4.255-5.073c1.227-1.637,1.637-3.273,4.173-7.528s5.973.409,9.328,2.946c3.355,2.455,2.946,1.309,2.946,1.309s1.718-2.128,6.71-4.664c5.073-2.537,6.383,3.846,6.383,3.846a9.412,9.412,0,0,1,2.537-4.664,6.483,6.483,0,0,1,4.173-2.128l4.828.573c.327-.164.982-.409,2.619-1.146,2.864-1.227,0-2.864,0-2.864l1.146-1.8c1.146-1.8,2.291-4.091,2.291-4.091l-1.718-1.8c-1.718-1.718,1.146-5.892,1.146-5.892l1.8-1.146c1.8-1.146,0-2.291,0-5.237a6.244,6.244,0,0,0-2.291-4.664l-1.146-2.373c-1.146-2.291-1.146-3.519-.573-5.237a12.27,12.27,0,0,0,.573-3.437l.409-6.464h-1.064l-3.519-2.864-2.291-1.8a70.47,70.47,0,0,0-7.61-1.227,55.219,55.219,0,0,1-8.756-.573,4.932,4.932,0,0,1-2.7-1.718c-1.391,1.064-2.455,2.046-2.455,2.046s-4.91,7.365-5.81,7.774c-.982.491-4.173,7.119-6.628,8.346a11.823,11.823,0,0,0-3.191,1.964,15.651,15.651,0,0,0-3.191,3.519s-2.209.409-6.137.9-3.191-.655-5.073-1.718c-1.964-1.064-5.892-1.718-7.61-2.209s-5.155,0-8.265,0-6.874-2.209-6.874-2.209-4.664.245-6.055.818c-1.473.491-6.792,1.391-6.792,1.391a39.408,39.408,0,0,0-8.756-3.355c-5.4-1.391-1.964,0-2.7.491a6.977,6.977,0,0,0-2.209,2.373c-.736,1.309-3.355.818-8.347,1.555-4.828.655-5.646.409-8.019.655-2.455.246-1.718,1.064-2.946,1.964-1.227,1.064-1.227,1.718-2.7,3.682-1.473,2.046-1.146,2.209-1.146,2.209s-2.209.736-10.065,1.555c-7.774.655-2.455,2.619-3.191,3.928-.736,1.227-2.864.245-8.51.491-5.646.164-1.227,2.128-1.718,3.682-.491,1.391-.9,1.146-4.173,2.619-3.191,1.555-1.718,0-3.191-.9-1.473-1.064-.736-1.309-1.227-1.964a41.741,41.741,0,0,0-2.946-3.437,26.9,26.9,0,0,0-4.419-1.555c-1.391-.245-3.355-1.718-4.664-2.864-1.227-1.227-3.682-4.91-3.846-6.137a6.165,6.165,0,0,1,.491-3.764c.491-.655-6.383-6.792-6.874-7.528-.491-.818-3.437-5.073-3.437-6.137a32.646,32.646,0,0,0-1.146-4.828s-2.946-6.628-3.928-8.592c-1.064-1.964-.491-1.309-3.191-3.928-2.7-2.7-2.128-1.391-3.682-3.437-1.391-1.882-.245-1.473-.491-2.619-.246-1.309.736-4.419-5.4-7.774-6.137-3.519-2.209-1.473-5.892-3.764-3.682-2.128,0,0-1.964-2.618-1.964-2.7-.736-2.455-1.227-4.91-.491-2.373-.245-1.227-2.209-1.718s-.982,1.227-1.227,1.964a6.963,6.963,0,0,1-2.209,2.455c-.736.491-2.7,1.964-4.419,1.964h-2.619c-1.718,0-1.882-.164-1.882-.164-.327.245-1.718,2.046-1.309,3.6.491,1.718,2.209.245,3.682.491s1.473,0,3.437.245c1.309.164,2.373.327,3.109.491,1.227.164.491,3.355,0,4.828a3.983,3.983,0,0,1-2.209,2.209l-.245,4.91-2.619,3.11a47.263,47.263,0,0,1-5.646,1.064c-1.227,0-2.946,1.637-5.155,2.864a26.41,26.41,0,0,1-7.365,2.946c-3.437.9-3.437,2.619-5.564,3.928-2.209,1.227-11.456,10.229-11.456,10.229h-2.209a8.694,8.694,0,0,0-2.946.9,3.9,3.9,0,0,0-1.227,2.209l1.964,1.8s-2.619,14.32-2.946,15.138c-.164.736-2.373,7.774-3.191,9.983-.736,2.209-.164,1.473-.9,3.682s0,0-1.227,1.309c-1.227,1.146-.736,0-4.419,1.391-3.682,1.473-1.227.245-5.646-.491s0,0-2.209,0-.245,1.309-.245,1.964-.982,1.555-1.964,2.7-.736,2.7-.491,4.173c.245,1.391,0,0,.982,2.864.982,2.946-.245,3.191-.736,4.91s0,0-.982.491c-.982.409,0,3.355,0,3.355l-1.718,4.173-.491,3.682a8.759,8.759,0,0,1,.818,2.946c0,1.227-.245,1.391-.245,1.391a11.04,11.04,0,0,1-1.473,1.964c-.982,1.064,0,3.191.736,4.173.736.9,1.227.9,3.437,3.109s.736,2.7.982,4.664-.736,3.191-1.637,5.155c-.982,1.882-1.473,2.209-2.209,3.682-.736,1.391-2.7,4.419-3.928,6.383s-1.473,2.373-2.7,4.337c-1.146,1.964-1.146,3.764-2.209,4.664a103.991,103.991,0,0,1-9.247,7.61c-3.682,2.619-26.84,17.02-26.84,17.02l-11.7,4.173-4.173,4.173s-7.61,7.037-8.756,7.774c-1.227.736-7.365,7.774-7.365,7.774l-.982,2.946c-.409,1.391-1.964,3.11-2.864,4.828a15.2,15.2,0,0,1-2.946,3.928c-.9.736-1.964.245-2.7.736s-3.682,1.391-4.664,1.964c-.982.491-3.846,1.718-4.828,2.864-.982,1.309-5.155,4.419-5.155,4.419l-6.628,1.309s-1.146,2.864-1.964,3.109c-.736.246-8.756,4.419-9.983,4.91-1.227.409-2.946,2.209-4.664,2.864-1.718.736-1.473,1.718-2.209,2.209s0,4.173-.245,5.155c-.245.9-2.209,0-2.209,0s-3.437-2.209-4.091-2.209a2.883,2.883,0,0,0-1.309.409l-2.864,1.064-.245,5.155-1.473.164L57.7,432.577a16.909,16.909,0,0,0-4.419-1.227l-1.964,2.209a11.992,11.992,0,0,1-2.373-.982c-.736-.491-2.7.246-2.7.246l.245,5.073-3.109-2.128-1.964-.491s-1.718.655-1.718,1.391a2.571,2.571,0,0,0,.736,1.473l1.473.491a3.143,3.143,0,0,1,1.964,2.946,8.058,8.058,0,0,1-1.718,1.964c-1.146.9-1.718,1.391-1.718,1.391l-.982-.982-2.209-.9c-2.209-.9-2.209,0-2.209,0V446a8.481,8.481,0,0,1-2.209,0c-1.227-.327,0,0,.245-1.8.164-1.718,0-1.146-.245-2.455-.245-1.146-1.718-.409-2.946-.409s-1.227,2.455-3.437,3.437c-2.209.9-1.964,1.718-3.437,2.946a6.857,6.857,0,0,1-2.373,1.391S10.4,458.6,8.438,459.335c-1.964.655-2.946,2.209-4.173,2.7-1.227.409-1.718,2.128-2.7,3.109a1.733,1.733,0,0,0-.491,1.964,15.121,15.121,0,0,0,2.373-.245c1.473-.246,1.227-.9,2.209-1.391,1.064-.491,1.227-1.964,1.964-2.946.736-.9.245-1.473,1.064-2.209L10.4,458.6s6.383-1.718,8.51-2.864c2.209-1.309.245-.982,1.227-2.455.982-1.391,4.91-.491,4.91-.491s2.455.245,3.682.245,0,1.227-.245,2.7a7.719,7.719,0,0,0,0,2.618l-3.191.246a2.568,2.568,0,0,0,.491,2.455c.982,1.064,0,0,3.682,0s1.473-.246,2.7-.737c1.227-.409,1.964-1.391,3.437-1.964,1.473-.409,2.373-2.864,2.946-3.682.491-.736,0-1.473.491-2.455a8.292,8.292,0,0,1,2.7-2.618,46.739,46.739,0,0,0,5.892-6.137c.736-1.309,1.227-.491,2.7-.491s3.355-.736,5.892-1.964c2.455-1.146.736-1.064,1.964-1.473,1.227-.491,3.928-.491,5.892-.736s1.227-1.964,3.437-3.682,1.964-2.455,3.928-3.191a16.893,16.893,0,0,1,3.682-.9c1.473-.245,1.473-.736,3.191-4.173s1.718-2.209,3.191-3.437,1.473,0,3.682.736,0,0,1.227.736a1.313,1.313,0,0,1,.736,1.718,8.478,8.478,0,0,0,1.964-1.473c1.064-.982.736-1.8,1.718-2.455.982-.736.982,0,3.355,0s.982-.982,1.473-1.964c.491-1.064.736-1.473,1.391-1.473a9.584,9.584,0,0,1,3.273.655c2.128.736,1.964,1.964,2.864,2.946.982.9,1.227,2.209,2.209,3.109.982.982.982-.491,1.227-1.473s.245-2.946,1.473-3.355a2.448,2.448,0,0,1,2.373.655,21.018,21.018,0,0,1,2.619,2.7c.491.818-1.391.491-2.128.818-.736.164-.491,1.146-.491,1.146a53.956,53.956,0,0,1,6.546,0c2.455.245,0,1.146,0,2.946s-.491.9-.9,1.718a9.431,9.431,0,0,1-.736.9,19.087,19.087,0,0,1,3.191.245c.9.245-1.718,2.7-2.455,3.682a6.754,6.754,0,0,1-3.682,1.964c-1.227.245-.982.491-1.964,1.064a7.425,7.425,0,0,0-2.373,2.209c-.982.9,1.718,2.619,1.718,2.619v4.419c0,.736.736,1.064-1.227,2.455-1.964,1.473-1.227.245-1.964,1.718s0,0,0,1.064,2.209,4.173,3.191,5.073c.982,1.064.982-.246,2.209-.655,1.146-.491.491-1.309,1.718-2.209a3.077,3.077,0,0,1,2.7-.737c.982,0,0,1.964,0,2.946s0,.9-1.064,2.864c-.9,1.964-1.718,1.964-1.718,1.964l3.682,1.064a6.042,6.042,0,0,0-2.209,1.227c-.655.736-1.718,1.964-1.718,1.964s-.982.245-2.7.491a5.464,5.464,0,0,0-3.191,1.227c-.982.736-.736,2.209-.982,2.946a19.855,19.855,0,0,1-2.373,2.864s3.682,2.7,4.419,3.191a22,22,0,0,0,4.173,1.146,3.756,3.756,0,0,0,.982,2.455,8.429,8.429,0,0,0,3.191,1.964c1.964.736,1.473,0,2.7-.655,1.227-.737,2.209-2.7,2.946-4.419.736-1.8.9-.736.9-.736a25.1,25.1,0,0,1,2.455,1.718c.982.736,1.227,1.309,2.7,1.391,1.473.245.982,0,1.718-.164.736-.245,1.964-1.555,3.109-2.209,1.227-.737,1.227-1.064,2.209-1.555a5.7,5.7,0,0,1,4.419.491l2.455,1.473c2.455,1.555,0,0,1.718-.655,1.718-.736,1.718-.491,3.928-.491s1.227,2.946,1.227,2.946a4.521,4.521,0,0,1-1.964,2.209c-1.473.655-2.209-.245-3.437-.245s-2.7,2.373-2.7,2.373-4.828,4.91-5.646,5.892a12.144,12.144,0,0,0-1.391,2.7c-.491,1.064-.245,1.146-.245,2.946s.491,2.864,1.964,2.128c1.473-.655,0-1.718.491-3.11.491-1.473.736-1.473,2.209-1.718,1.391-.245,0,0,1.146.245,1.227.246,1.227.491,1.227.491s5.155,3.682,6.137,4.419c.982.655.982,2.373.982,2.373l-1.227.491s-1.718,4.419-1.718,5.646.491,1.309,3.191,1.964c2.7.736.491-1.718.736-2.618a14.992,14.992,0,0,1,.736-3.191c.491-.9,2.7,1.146,4.664,2.209a4.611,4.611,0,0,1,2.455,4.419c-.245.9-2.455.9-2.455.9a4.559,4.559,0,0,1-4.419,2.7c-3.437,0-1.718,0-3.191.245s-.736,1.391-.736,1.391a13.988,13.988,0,0,1-1.964,3.928,10.262,10.262,0,0,0-1.718,2.7s3.355,4.664,3.191,5.892c-.245,1.227-1.146.982-2.864,1.391-1.718.491-1.718,1.064-3.191,1.964-1.473.982-1.227,0-3.928-.737-2.619-.736,0-.982.491-5.155s-1.227.736-1.227.736l-4.173-1.391c-4.173-1.473-.982-.818-1.964-3.273a7.036,7.036,0,0,1-.736-4.173c0-1.718-3.191.491-4.419,0-1.146-.491,0,0-2.209-1.391-2.209-1.473-1.718-1.964-1.718-1.964l-5.564,2.209c-5.646,2.209,0,0-1.227,0s-.736.491-1.473.9c-.736.491-.736,1.8-.736,2.455s1.227,3.519,3.437,4.173c2.209.737,0,0,2.373-1.227,2.373-1.309-.164-1.718-.164-1.718s-2.455-1.309-.736-2.946c1.637-1.718,0,0,1.637-.982a2.841,2.841,0,0,1,2.946,0,47.327,47.327,0,0,1,2.209,4.255c.164.655,3.355,1.964,3.355,1.964s.491,1.964,1.473,2.128c.982.245,1.718,2.209,4.091,4.173,2.455,1.964-.982.245-1.718.245s-1.718-.245-5.155-.245,0,0-1.227,1.964c-1.146,1.964,0,0-2.209,1.555-2.209,1.473,1.309,3.11,1.309,3.11l1.146.245a36.554,36.554,0,0,0,3.191,6.137c1.718,2.455,1.473-.246,3.191-2.209s0,0,1.391-.491c1.473-.409,1.473,0,5.4.245s2.455.737,4.419,1.718,0,2.946,0,4.91-1.227.245-1.964.491-1.718,0-5.4-.491,0,0-1.473-.737-1.718,1.555-1.718,1.555l.982,1.718.982,3.928a28.481,28.481,0,0,1,2.7,3.846c1.473,2.455-.491,1.064-1.718,1.718-1.227.737,0,0,.246,1.964s0,0,.736-.245,0,1.309,1.473,2.455c1.391,1.227-1.718,5.319-1.718,5.319l-1.473.737h-5.892c-3.437,0-.736,1.146-1.964,1.473a1.193,1.193,0,0,1-1.473-.9l-1.964-1.309a35.836,35.836,0,0,1-5.646-2.209c-3.928-1.718,0,0-.736,0s-.9,1.8-1.718,3.273c-.736,1.391-.491,1.391-.491,2.7s-.164,2.864-.164,2.864a8.736,8.736,0,0,0-1.473,2.455,4.631,4.631,0,0,1-.982,1.718c-.736.737-.491,1.309-2.7,2.209s.982,1.146,2.455,1.964c1.473.737.9-.491,2.128-1.473s.736-.736,1.227-3.682.491-1.309,1.227-1.964c.736-.737.245-1.8.245-4.419s.982-1.309,1.718-1.309a9.048,9.048,0,0,1,2.128.491l1.064.245c.982.246.491,1.964,1.964,2.619,1.473.818,2.7.327,4.664.327s2.209-1.309,3.682-2.046c1.473-.655,3.437.982,3.437.982l2.373-.491,1.309,5.4,2.128,5.974c2.128,5.892,0,0,3.846,3.846,3.764,3.764,0,1.636,0,1.636a10.3,10.3,0,0,0,.818,3.846,41.842,41.842,0,0,0,2.864,4.582,20.967,20.967,0,0,0,3.846,1.309c2.046.409,1.718.409,7.2,3.437,5.483,2.946,2.946,2.537,2.946,2.537a18.486,18.486,0,0,1-3.846.409c-2.128,0-2.128-1.309-2.946-2.537-.818-1.309,0,0-5.892-2.128s-2.128,0-3.764,0,0,0-2.537-.409,0,0,0-3.764,0,0-.818-1.718,0,0-1.718.327c-1.718.491,0,0-2.128,1.719s-1.718,2.128-1.718,2.128a6.257,6.257,0,0,0,2.128,3.437c1.718,1.309,2.128,1.309,2.128,1.309l2.537.818s-2.128,2.537-4.664,5.073,0,0-2.128.409,0,0-2.946-1.309c0,0,.409,2.946.818,5.482.409,2.455,0,0-.409,1.637-.409,1.718.818,2.537,3.846,6.383,2.946,3.846,1.718.409,4.255.409s3.437-.818,3.437-.818l.409-2.128c.409-2.128,0,0-2.537-.409s.409-1.718,1.309-3.764c.818-2.128,0,0,1.227-2.537s0,0-1.718-1.718-.409-2.128-.409-2.128l1.309-2.127c1.227-2.128,2.455,0,6.3,0s1.718.409,2.946.818c1.309.409,3.437,2.537,5.073,3.355a5.866,5.866,0,0,0,3.355.818H163.5a45.5,45.5,0,0,0,5.483,3.764c2.864,1.882,1.8,2.7,1.391,2.946.573-.409,6.3-3.355,7.856-4.173,1.637-.818,5.4-.818,8.756-.491a5.621,5.621,0,0,0,1.391-2.046c.818-2.128,1.718-.818,3.764-1.718H191.9Z" transform="translate(-0.95 -35.024)" fill="#f2e4ca" stroke="#fff" stroke-linejoin="round" stroke-width="2"/>
        <path id="パス_61" data-name="パス 61" d="M387.7,147.788c0-1.964-.573-1.637-1.964-2.455-1.309-.818-2.455-.818-4.582-2.455s-.327-1.637-1.391-4.091-1.637,1.064-2.455,1.064-1.064,0-7.692-.245c-6.546-.327-1.637.491-4.337,0-2.7-.573,0,0-.818-1.964s0-1.391,2.373-4.664l-1.391-3.928a17.219,17.219,0,0,0-2.864-1.309c-3.6-1.064-1.964-2.209-3.273-5.155-1.391-2.946,0-2.209-.818-4.091-.818-1.964,0,0-7.61-1.964-7.692-1.882-5.974.245-11.211.573-5.155.245-1.882,0-3.846.491a5.46,5.46,0,0,0-1.473.573l1.718,1.8a8.728,8.728,0,0,0,2.209.655c1.637,0,1.882.245,4.419.491,2.455.245.245,2.455.245,2.455l-1.637,1.882s-2.209,1.964-2.455,3.273,1.637.245,5.974.245.818,1.064,1.391,2.209a16.961,16.961,0,0,0,1.637,3.519c.818,1.064,0,4.337-.491,5.4-.573,1.064-2.782,2.209-3.764,2.455-1.146.245,0,0-2.455,0s-2.455.245-3.846,1.064a11.652,11.652,0,0,0-4.419,4.664,4.884,4.884,0,0,0-.246,4.091,25.245,25.245,0,0,0,6.3,1.882c3.273.573,1.637-.245,5.155-1.882,3.519-1.718,5.4-4.419,7.365-5.155,1.882-.818,1.309.245,6.792.491s1.637-.245,3.273-.736c1.637-.573,1.882.245,4.419.491,2.373.245,0,0,4.91,1.391s0,0,0,1.064a3.944,3.944,0,0,1-1.146,2.946,3.186,3.186,0,0,1-2.7.818h-2.7a38.006,38.006,0,0,0-7.365.818c-1.882.491-1.064,4.337-1.064,4.337l3.846,1.964c3.846,1.882.573,1.637.573,2.455a12.043,12.043,0,0,1-1.064,5.4c-1.064,1.964-1.391-.818-2.455-2.455s-1.391,1.064-1.637,2.455a4.451,4.451,0,0,1-1.964,2.7c-.818.818,0,1.964,1.064,3.846,1.064,1.964-.573,2.7-1.064,4.419-.491,1.637,0,2.373,2.455,4.091,2.455,1.637,2.7-.573,4.91-1.718,2.209-.982,2.455-.491,4.337-.982,1.882-.573,1.146-2.7,2.455-4.664a19.719,19.719,0,0,0,2.209-4.337l4.664-4.91a31.723,31.723,0,0,1,3.519-.327h1.064c1.064,0,2.128-.491,2.455-5.646s-5.728,0-8.674-2.455c-3.028-2.455,0-1.882.491-4.091.573-2.209,2.7-3.273,5.4-3.273a55.411,55.411,0,0,0,9-.573c4.173-.491.327-1.309.327-3.191v.245Z" transform="translate(-61.37 -21.84)" fill="#f2e4ca"/>
        <path id="パス_62" data-name="パス 62" d="M426.813,121.564c-2.209-1.718-2.209-.327-6.055-1.964h0l-8.183,1.8a16.573,16.573,0,0,1-.818,2.291c-.245.818-2.7,1.391-3.846,1.146a3.6,3.6,0,0,1-1.637-.818,8.455,8.455,0,0,0-2.455.573c-1.637.491-1.064,1.637-1.637,11.456-.491,9.819,1.391,0,3.028-.245s3.191-2.455,3.191-2.455a16.462,16.462,0,0,1,.818-4.664c.818-2.455,3.846,2.209,3.846,2.209a10.223,10.223,0,0,0,1.882-3.273c.245-1.391,2.209-3.191,3.519-3.846,1.309-.491,1.718,3.028,5.974,4.664,4.337,1.637,0,0,1.882-.245s1.882-2.209,2.782-3.846c.818-1.718-.327-1.146-2.455-2.7h.164Z" transform="translate(-74.091 -22.538)" fill="#f2e4ca"/>
        <path id="パス_63" data-name="パス 63" d="M305.3,163.812s.573,4.337,3.273,3.846a7.8,7.8,0,0,0,4.337-3.028s-6.792-3.191-7.61-.736h0Z" transform="translate(-56.437 -30.515)" fill="#f2e4ca"/>
        <path id="パス_64" data-name="パス 64" d="M772.171,26.61c-.573,0-3.519.491-3.519.491a4.635,4.635,0,0,1-1.064,1.964c-.655.491-.9.245-1.309,1.882-.409,1.555.655,5.564.655,5.564s3.437,1.882,4.828,0a24.926,24.926,0,0,0,2.373-3.273c.737-1.064-.655-.818,1.637-1.718,2.373-.736,2.046,0,3.519-.982,1.391-.9-1.309-1.309,2.373-1.064s5.646-.164,5.483.573c-.164.818-1.473,1.391-.164,1.391a11.757,11.757,0,0,0,2.373-.245,2.32,2.32,0,0,1,2.373,1.309c.737,1.637-.245-.982,1.146,2.128s1.555,4.337,1.391,5.073.245,1.882-.736,2.373c-1.064.491-2.209.736-2.373,1.555s-.164,1.473.655,1.718,2.209.164,2.209,1.064.491,1.8,0,2.209-2.128-.491-2.373.9-.655,1.146.164,2.046,1.8,1.391,2.291,1.146c.573,0,1.064,1.391,1.718-.736.655-2.209,1.637-7.037,1.8-7.528s0-.245,1.555-1.882a9.989,9.989,0,0,0,2.291-3.273c.655-1.309,1.718-2.946,1.718-2.946a1.894,1.894,0,0,1,1.718-1.309,7.012,7.012,0,0,0,3.682-1.146c.655-.736.736-1.637,1.555-1.718.818-.164-1.718-1.8,2.537-.245,4.173,1.391,5.483,1.391,5.483,2.291s1.309.9-.164,1.964a7.122,7.122,0,0,1-3.109,1.637c-.9.245-4.583-.491-1.064.736a27.869,27.869,0,0,0,6.055,1.882c.409,0,0-1.146.327,0a18.342,18.342,0,0,0,.9,3.11c.655,1.309.9,4.582,1.882,2.046.9-2.455.245-4.5.573-5.319.409-.736,2.619-1.227,3.028-2.864.409-1.718-.573-4.582-.9-5.155a2.182,2.182,0,0,1-.409-2.128c.327-1.227,1.309-1.718,1.718-3.846s.246-4.173.409-5.319,1.718-5.892,1.718-7.528a3.371,3.371,0,0,0-1.391-2.864c-.491-.409-1.309-1.064-1.309-1.882,0,0-.655-1.637.245-2.373a3.634,3.634,0,0,0,1.146-1.473c0-.736,0-4.091-1.309-3.846a23.627,23.627,0,0,1-3.273.164,6.494,6.494,0,0,0-2.21,0,8.547,8.547,0,0,0-3.273,1.146c-1.064.491-1.473.327-2.373,1.309A23.421,23.421,0,0,1,813,5.825c-.327.245,1.637.655-.818.655s-4.5-.164-5.892-.164H803.1a9.319,9.319,0,0,0-2.127-.245A12.251,12.251,0,0,0,797.7,7.707c-.573.491-2.619,1.309-3.355,2.046a29.661,29.661,0,0,0-1.8,2.373s-1.309.491-2.373.9-1.8.164-2.209.818a8.25,8.25,0,0,1-1.228,1.391s-2.209,1.064-3.028,1.391a18.146,18.146,0,0,1-4.01.573c-1.227,0-1.882.655-2.619,0a22.653,22.653,0,0,1-1.882-1.555s-.655-2.128-1.718-.491a30.453,30.453,0,0,0-1.964,4.01,8.649,8.649,0,0,0,.491,2.373c.409.491,2.537,2.537,2.537,2.537s1.064,2.537-2.373,2.7V26.61Z" transform="translate(-140.585 -0.984)" fill="#f2e4ca"/>
        <path id="パス_65" data-name="パス 65" d="M631.1,73.163s-.737,2.455-2.455,2.455-3.519-2.7-3.764-1.064c-.327,1.637.573,5.4.573,5.4s1.637,2.455,3.764,1.146c2.128-1.391,5.4-3.6,5.4-3.6S636.258,70.463,631.1,73.163Z" transform="translate(-114.689 -13.988)" fill="#f2e4ca"/>
        <path id="パス_66" data-name="パス 66" d="M609.843,73.155s2.7,5.646,1.637,7.856a10.22,10.22,0,0,1-2.946,3.846c-.818.491-1.064,1.309-1.636,2.7s1.064,3.273-2.455,1.964c-3.6-1.309-4.664-3.273-3.273-5.974a32.326,32.326,0,0,1,4.091-6.3c1.064-1.391,4.664-6.546,4.664-4.091h-.082Z" transform="translate(-110.271 -13.98)" fill="#f2e4ca"/>
        <path id="パス_67" data-name="パス 67" d="M567.819,202.849a55.22,55.22,0,0,0,8.756.573,70.47,70.47,0,0,1,7.61,1.227l2.291,1.8L590,209.314h6.383l5.319-3.437s0-1.227,2.864-3.6c2.946-2.291,5.237-2.864,6.464-5.237,1.146-2.291-2.291.573,2.946-4.664,5.319-5.237,8.756-6.464,8.756-6.464s-1.227,1.8,2.291,2.373,4.746,2.291,6.465,1.146,1.718-8.838,3.519-8.838,9.9-1.146,9.9-1.146,2.373-2.291,4.091-2.291h4.746a7.989,7.989,0,0,0,5.237-1.8,14.652,14.652,0,0,1,4.091-1.8l2.291-.491a20.918,20.918,0,0,0,2.373,5.237,15.535,15.535,0,0,0,5.237,4.664s.573,7.528,7.037,7.037a12.928,12.928,0,0,0,9.328-4.746s-2.864,1.227,3.6-3.437c6.383-4.664,7.528-7.61,7.528-7.61a20.451,20.451,0,0,1,5.892-1.064,31.876,31.876,0,0,0,5.237-.573h6.383c2.373,0,5.319-1.8,5.319-1.8s4.091-6.464,4.664-9.328c.573-2.946,0-7.61,4.091-8.183s2.864-1.8,6.465-1.8h3.519c6.465,0,7.037,1.227,10.556,0s7.61-.573,11.7-.573,6.465-1.718,7.037,0c.573,1.8-.573,2.373,2.946,2.373a27.647,27.647,0,0,0,5.892-.573l2.291-.573,4.664-1.227s0-1.718,2.373-.573c2.373,1.227-.573,0,2.373,1.227,2.864,1.227,11.7,4.746,11.7,4.746s.573,1.064,4.091,1.064,2.291,2.946,3.519,0c1.227-2.864,1.227-7.528,1.227-7.528v-4.746l2.864-3.437v-2.7c-1.8-.491-2.046-1.309-6.137-2.7-4.173-1.473-1.964-.9-2.946-1.718-.982-.736,0,0,0-.736a18.89,18.89,0,0,1-.245-2.373c0-.9-2.7,0-2.7,0a11.047,11.047,0,0,0,.491-2.455,10.94,10.94,0,0,0-1.227-3.11s-4.664-3.191-5.4-2.946c-.655.245-5.319,1.718-7.037,1.718a21.117,21.117,0,0,1-3.928-.245c-1.718-.245-3.682-1.718-4.664-2.455-.982-.655-2.946-3.437-5.319-4.582a3.113,3.113,0,0,0-3.928.409,22.676,22.676,0,0,1-3.846-2.373c-1.473-1.227,0,0-.491-.736a8.971,8.971,0,0,0-2.455-1.718,14.457,14.457,0,0,1-3.191,1.227c-.737,0-2.619-5.4-2.946-6.137-.245-.655-.491-.9,0-4.582.491-3.764,0,0,.982-.736s1.964-.736,2.946-2.209,0-2.455,0-3.682-2.209-3.437-3.682-5.155-2.455,1.964-2.455,1.964a15.315,15.315,0,0,1-3.928-.655c-2.209-.736-.982-1.064-1.718-2.7a23.706,23.706,0,0,1-1.227-4.419s-3.682-.9-4.419.736a17.061,17.061,0,0,0-.982,4.173l-1.391.9s-1.473-.409-5.892-1.718c-4.419-1.146-2.946-2.455-2.946-2.455a5.352,5.352,0,0,1-2.7-.655c-.736-.736-.491-1.964-.245-2.946.245-.9,0-1.964.245-2.864.246-1.064.491-2.7.491-2.7,0-1.391-1.964-1.391-2.864-3.846-1.064-2.455-3.682-1.227-7.119-1.227s-.491,2.128-.491,2.128a25.048,25.048,0,0,1,.982,3.682c0,.736-1.718,1.555-1.718,1.555l.245,3.928c0,.655-.245,2.455-1.473,3.109-1.228.736-1.228-1.391-1.228-1.391l-.491-1.064s-1.718-2.864-2.373-4.091a4.227,4.227,0,0,0-2.455-1.718l-.737,2.619s-.245,5.319-1.227,5.81a3.507,3.507,0,0,0-1.391,1.964s-3.682-.9-4.173-1.964c-.409-.9-2.127,0-2.864,0s-2.209,1.555-2.209,1.555-4.419-1.064-6.628-1.555-.9,0-2.619,1.064c-1.718.9,0,0-.736.245-.818.245-3.682-.245-4.91-.245s-3.355-2.455-3.928-3.437c-.491-.982-3.928-2.946-3.928-2.946l-3.846.9-1.718-.409-.736-3.191-1.718-.245-1.964-.9-3.355-1.473-.245,1.473s-3.191.9-4.173,1.227c-.982.245-5.155.245-5.4.982a14.477,14.477,0,0,0-.245,3.682,18.58,18.58,0,0,0,.245,3.682c.245,1.8,0,1.964-.245,4.173s-2.7,1.718-3.846,2.946c-1.309,1.227-1.064.9-2.455,1.391a10.051,10.051,0,0,1-2.946.491,31.639,31.639,0,0,1-7.037.409c-3.437-.245,0,0,0-.655A6.121,6.121,0,0,1,639.093,95a6.041,6.041,0,0,0,.737-2.455c0-1.146-.246-1.227-.246-1.227l-1.718,1.964-1.964.655-1.964,3.355L633.2,98.6s.737.9-.736,2.455a26.98,26.98,0,0,1-4.664,3.355c-1.719,1.146-1.964,2.209-4.664,2.7-2.619.491-2.864.9-2.864.9l-.982,1.473c-.9,1.555-1.473.736-2.7,1.555-1.227.655-3.437,4.419-7.037,5.646-3.682,1.146,0,0-.818-1.227-.655-1.227,0,0-1.146,0s-.245,1.227-.736,4.173c-.409,2.864,0,1.718-.409,2.619a15.938,15.938,0,0,1-3.437,3.764c-1.227.9-6.792,5.564-6.792,5.564s-1.473.164-3.682.164-1.964-.164-3.682-.9a6.915,6.915,0,0,0-4.337-.736c-2.209.245-1.228,1.064-3.191,1.064a41.6,41.6,0,0,1-5.564-.245c-1.964-.245-1.718-.9-2.946-2.7-1.146-1.718-1.473-1.718-1.964-2.864-.491-1.309-2.7-.736-5.646-1.473s-1.964-1.309-5.4-3.191c-3.437-1.964,0,0-2.209.491s0,0,1.227,2.209.737,1.146.737,2.7-.491,1.882,1.964,3.682c2.373,1.718,1.718.655,3.437,1.146a25.159,25.159,0,0,0,3.191.9c1.964.491.736,2.209,1.227,2.946s2.455,1.391,4.419,2.455c1.964.982,2.7.655,4.419,1.964,1.718,1.146,1.473,2.7,2.209,4.664a11.173,11.173,0,0,0,1.718,3.6c1.227,1.964.245,4.828.245,6.546a22.659,22.659,0,0,1-.491,3.764,20.816,20.816,0,0,0,0,3.928c0,1.473.491,1.964.491,3.682s-1.473,1.718-3.191,3.846a5.842,5.842,0,0,0-1.146,4.664c0,.982,1.964,3.191,1.964,3.191l-1.227,9.819s-1.964,7.283-2.209,8.756c-.245,1.555-3.191,2.7-5.646,2.946-1.391.082-3.6,1.718-5.319,3.028a5.115,5.115,0,0,0,2.7,1.718l-.491-.491Z" transform="translate(-102.51 -14.057)" fill="#9f1627" stroke="#fff" stroke-linejoin="round" stroke-width="2"/>
        <path id="パス_68" data-name="パス 68" d="M908.169,283.7a13.04,13.04,0,0,1-5.646,3.191c-3.028.491-1.064-.818-1.064-.818l-2.291-.327s-3.028,2.291-5.892,2.291-1.227-.327-1.391-1.718c-.245-1.473,1.391-1.964,2.782-2.537a12.683,12.683,0,0,1,4.5-1.391c2.537-.245,1.473-1.637.327-2.209a2.564,2.564,0,0,0-1.964-.245s-2.864-.327-3.682-.327-2.209,1.227-4.5,2.537c-2.291,1.473-1.964-.573-4.5-1.064-2.537-.573-3.928,1.964-3.928,1.964l2.537-5.073,1.146-2.782-.327-.818c-.327-.818-1.964,1.146-5.073,2.537-3.109,1.473-1.391-1.718-1.391-1.718l.818-.573c.818-.491,2.209-1.637,3.682-2.455,1.391-.818,1.146-1.718,1.964-2.782.818-1.227,1.637-.818,3.682-1.391,1.964-.573,1.964-1.964,1.964-1.964s2.537-2.864,3.028-4.255c.573-1.473.573-1.146,2.864-1.473,2.291-.245,1.718-1.718,2.291-2.782s-.245-1.964-1.146-5.892c-.818-3.928-1.146-1.718-1.146-3.273s-.818-2.291-.818-3.355-1.964-1.473-3.109-1.718c-1.146-.327-2.537-1.964-5.319-4.255s-1.718-2.291-3.682-5.073-1.964-3.273-1.964-4.5-.818-1.309-1.964-2.782c-1.146-1.391-1.391.573-1.391.573a10.256,10.256,0,0,1,0,3.028c-.327,1.718,0,0-4.01,1.473-3.928,1.391-1.391-.245-4.173-3.191-2.864-2.782-1.391-1.964-1.718-3.028-.328-1.146-6.219-6.546-5.319-7.856.818-1.473.327-1.718-.327-4.01-.491-2.209,0,0-1.718-2.209-1.637-2.291,1.718-4.828,5.974-4.828s2.537,0,3.355-.818-.327-1.718-1.146-3.273c-.818-1.718-2.537-2.046-2.209-3.355.327-1.473,1.064-2.046,2.537-3.437,1.391-1.391-1.718-2.291-2.291-3.846-.573-1.718.818-5.4,2.291-5.4s1.064-.491,1.637-2.209.245-3.437.491-5.319c.327-2.046,0-3.11,2.291-5.319,2.209-2.291.245-1.227,1.064-2.864s1.964-2.455,3.355-3.682c1.391-1.146,1.718-2.782,1.964-4.5.327-1.718,0,0-1.391-1.391-1.391-1.473-1.718.245-2.537.245s-.573-1.064-1.473-3.682c-.818-2.537,1.146-1.718,2.864-3.355,1.718-1.718,0-1.718.818-3.028.818-1.473,0-2.537,0-4.582s-1.146-.818-1.718-1.964-1.146-1.146-1.146-1.146l-.573,1.718.327,2.537-.818,2.209-1.473,1.718c-1.391,1.637-1.718,1.391-3.682,1.964s-1.718-.491-4.173-1.964c-2.537-1.473.327-1.391,1.391-2.782,1.146-1.391,1.064-1.391,3.682-2.537,2.537-1.064,1.391-1.964,3.11-3.682,1.637-1.718,0-1.718,0-3.682A2.228,2.228,0,0,0,871.1,136.9l-1.391.818c-1.391.818-1.391.573-2.782,1.391A16.112,16.112,0,0,1,863,140.828c-1.964.491-1.146.491-2.537.818-1.391.245-1.064,2.782-1.064,2.782l-1.146,1.718.245,1.064-1.227,1.964-1.718-1.555-1.473-.9h-5.073s-6.383.245-7.61.245-5.155.245-5.155.245a11.571,11.571,0,0,1-5.155,3.682c-3.682,1.391-8.019.245-9.819-.245v2.7l-2.782,3.437v4.746s0,4.664-1.227,7.528c-1.146,2.946,0,0-3.519,0s-4.091-1.064-4.091-1.064-8.756-3.519-11.7-4.746,0,0-2.373-1.227c-2.373-1.064-2.373.573-2.373.573l-4.664,1.227-2.291.573a26.713,26.713,0,0,1-5.892.573c-3.6,0-2.291-.573-2.946-2.373-.573-1.718-2.946,0-7.037,0s-8.183-.573-11.7.573c-3.519,1.227-4.091,0-10.556,0h-3.519c-3.519,0-2.373,1.227-6.464,1.8s-3.519,5.237-4.091,8.183c-.573,2.864-4.664,9.329-4.664,9.329s-2.946,1.8-5.319,1.8h-6.383a33.291,33.291,0,0,1-5.237.573c-2.291,0-2.291,0-5.892,1.064,0,0-1.146,2.946-7.528,7.61-6.465,4.664-3.6,3.437-3.6,3.437a12.928,12.928,0,0,1-9.329,4.746c-6.465.491-7.037-7.037-7.037-7.037a15.536,15.536,0,0,1-5.237-4.664,20.921,20.921,0,0,1-2.373-5.237l-2.291.491a14.654,14.654,0,0,0-4.091,1.8,7.839,7.839,0,0,1-5.237,1.8h-4.746c-1.719,0-4.092,2.291-4.092,2.291s-8.183,1.146-9.9,1.146-1.8,7.61-3.519,8.838c-1.718,1.146-2.946-.573-6.464-1.146s-2.291-2.373-2.291-2.373-3.519,1.146-8.756,6.465c-5.237,5.237-1.718,2.373-2.946,4.664-1.227,2.373-3.437,2.946-6.465,5.237-2.864,2.373-2.864,3.6-2.864,3.6l-5.319,3.437h-5.4l-.409,6.464a11.9,11.9,0,0,1-.573,3.437c-.573,1.8-.573,2.946.573,5.237l1.146,2.373a6.457,6.457,0,0,1,2.291,4.664c0,2.864,1.8,4.173,0,5.237l-1.8,1.146s-2.864,4.173-1.146,5.892l1.719,1.8s-1.146,2.291-2.291,4.091l-1.146,1.8s2.864,1.718,0,2.864a15.873,15.873,0,0,0-2.619,1.146l2.291.245-2.291-.245h-.327l-.573,4.091s0,2.946,1.8,2.946-2.864-.573,1.8,0,9.329,5.237,9.329,5.237h3.519c2.373,0,5.892-1.8,5.892,0s-1.8,0,0,1.8-4.173,1.718,1.718,1.718H631.75a14.234,14.234,0,0,0,4.092.573c2.373,0,2.864-.573,4.664-.573s4.664-1.718,6.465,0a40.5,40.5,0,0,0,4.091,3.6L652.289,290s-.573,1.8,2.373,2.946c2.864,1.064,0,.491,2.864,1.064,2.946.573,4.664-1.064,5.237.573.573,1.8-1.8,4.746,2.291,4.746h8.183s4.092-2.946,4.746-5.892a29.771,29.771,0,0,0,.573-5.237s-.573-1.064,2.373-1.637a30.47,30.47,0,0,1,5.237-.573s2.291,0,2.291,1.8v1.718s1.718,2.373,3.519,2.373a22.163,22.163,0,0,0,5.237-1.227h2.946a15.183,15.183,0,0,1,2.291,5.237c.573,2.946,1.228,4.091,3.519,6.464s1.719-1.8,2.291,2.373c.573,4.091.573,0,.573,4.091s-.573,1.718.573,6.464c1.227,4.664.573,5.892,1.227,7.61.573,1.718.573,1.064.573,4.091s.573,4.091,0,5.81l-.573,1.718a11.241,11.241,0,0,0,6.383,2.373,27.643,27.643,0,0,0,5.892-.573s.573-2.373,5.237.573c4.746,2.864,7.037,1.8,7.037,1.8s4.664-1.473,6.137-.245c1.637,1.309,1.637,1.882,1.637,3.519s.327,1.882,0,3.109.573,2.455.573,3.764,1.555,2.782.327,4.091c-1.309,1.309-3.437,4.091-4.419,4.337-.9.327-3.764-.245-2.782,2.537.9,2.782,3.191,5.564,4.419,5.892,1.309.327,0-1.882,1.309.327,1.228,2.209-3.437,2.455.327,5.237,3.764,2.864,5.646,3.109,5.646,5.319s.327,3.437.327,4.419-2.455,0,0,.9a12.947,12.947,0,0,0,5.892.9c2.782,0,2.537-.327,4.991.573,2.537.9,2.21.655,4.092,2.209s2.209,1.309,3.191,2.782c.9,1.637,3.11,1.882,4.419,2.209a17.2,17.2,0,0,1,2.455.9l2.209,1.8s.818-1.391,3.928-5.564c3.109-4.255.327-1.964.573-3.11.327-1.064,0,0,2.537-3.682s4.255-2.537,5.319-3.437a10.6,10.6,0,0,1,5.564-1.964c2.864-.245,1.146-.818,2.291-1.964,1.064-1.146,2.209-5.728,4.255-7.365,1.964-1.637,2.209-5.319,2.209-5.319s.327-3.682.573-4.746a7.544,7.544,0,0,1,1.718-2.537l1.964-2.209s3.11-2.864,3.928-3.109,2.537-2.209,3.928-2.782a10.625,10.625,0,0,1,3.355-.818c1.718-.245,2.782,0,4.5-.818s2.782-.818,3.6-1.473a32.878,32.878,0,0,1,4.255-1.964c.818-.246,5.319-2.537,5.319-2.537a58.846,58.846,0,0,0,6.464-4.992c1.964-2.046,7.365-6.219,7.365-6.219l-.818-3.273s-3.682-2.291,1.146-3.437c4.746-1.064,2.537,0,4.5,0a15.025,15.025,0,0,0,5.073-1.064c1.391-.573.818-3.355,1.637-4.255a5.446,5.446,0,0,0,1.146-2.291,2.366,2.366,0,0,1-1.718-3.273c.818-2.864,2.537-.327,4.5,0a8.143,8.143,0,0,0,5.073-.573c1.718-.818,1.718-2.291,2.537-3.437.818-1.064,3.028-2.291,4.746-3.109s4.5-.245,7.283-1.391c2.864-1.146,3.191-2.291,4.5-3.109,1.391-.818,4.5-2.455,5.892-3.273s8.756-4.582,10.147-5.4,3.682-2.209,4.5-3.682c.818-1.309-1.964-1.064-1.964-1.064Z" transform="translate(-108.916 -25.815)" fill="#f2e4ca" stroke="#fff" stroke-linejoin="round" stroke-width="2"/>
      </g>
    </g>
    <text id="徳島県" transform="translate(-15489.592 -23500.059)" fill="#d3992c" font-size="16" font-family="NotoSansJP-Bold, Noto Sans JP" font-weight="700" letter-spacing="-0.025em"><tspan x="0" y="0">徳島県</tspan></text>
    <text id="香川県" transform="translate(-15569.611 -23602.389)" fill="#fff" font-size="19" font-family="NotoSansJP-Bold, Noto Sans JP" font-weight="700" letter-spacing="-0.025em"><tspan x="0" y="0">香川県</tspan></text>
    <text id="高知県" transform="translate(-15727.77 -23389.479)" fill="#d3992c" font-size="16" font-family="NotoSansJP-Bold, Noto Sans JP" font-weight="700" letter-spacing="-0.025em"><tspan x="0" y="0">高知県</tspan></text>
    <text id="愛媛県" transform="translate(-15882.887 -23425.979)" fill="#d3992c" font-size="16" font-family="NotoSansJP-Bold, Noto Sans JP" font-weight="700" letter-spacing="-0.025em"><tspan x="0" y="0">愛媛県</tspan></text>
  </g>
</svg>
